<?xml version="1.0" encoding="utf-8"?>
<!-- Generator: Adobe Illustrator 27.6.1, SVG Export Plug-In . SVG Version: 6.00 Build 0)  -->
<svg version="1.1" id="LinkedIn_alt" xmlns="http://www.w3.org/2000/svg" xmlns:xlink="http://www.w3.org/1999/xlink" x="0px"
	 y="0px" viewBox="0 0 512 512" style="enable-background:new 0 0 512 512;" xml:space="preserve">
<style type="text/css">
	.st0{fill:#EFEED6;}
</style>
<path class="st0" d="M51.3,185.9h90v270.9h-90V185.9z M96.9,55.3C66.1,55.3,46,75.5,46,102c0,26,19.5,46.8,49.8,46.8h0.6
	c31.4,0,50.9-20.8,50.9-46.8C146.7,75.5,127.7,55.3,96.9,55.3z M362.3,179.5c-47.8,0-69.2,26.3-81.1,44.7v-38.3h-90
	c1.2,25.4,0,270.9,0,270.9h90V305.4c0-8.1,0.6-16.2,3-22c6.5-16.2,21.3-32.9,46.2-32.9c32.6,0,45.6,24.9,45.6,61.2v144.9h90V301.4
	C466,218.2,421.6,179.5,362.3,179.5z"/>
</svg>
