<?xml version="1.0" encoding="utf-8"?>
<!-- Generator: Adobe Illustrator 27.6.1, SVG Export Plug-In . SVG Version: 6.00 Build 0)  -->
<svg version="1.1" id="Layer_2_00000152964937724006848790000016189692885630369412_"
	 xmlns="http://www.w3.org/2000/svg" xmlns:xlink="http://www.w3.org/1999/xlink" x="0px" y="0px" viewBox="0 0 288.8 239.3"
	 style="enable-background:new 0 0 288.8 239.3;" xml:space="preserve">
<style type="text/css">
	.st0{fill:#FFFFFF;}
</style>
<g>
	<path class="st0" d="M244.9,34.7c-0.4-0.1,0,0.5-0.3,0C244.7,34.6,244.9,34.5,244.9,34.7z"/>
	<path class="st0" d="M250.7,116.4c0.1-0.9,0.6-1.2,1.2-1.6s1.2-0.8,1.4-1.5c0.1-0.1,0.4,0.5,0.6,0.2c0.2-1.6,2-2.4,3.6-3l0.1,0.2
		c0.3-0.1,0.1-0.8,0.3-1c0.1,0.1,0.1,0.2,0.2,0.3c-0.2-0.3,0.2-0.5,0.1-0.8c0.2,0,0.4,0.2,0.7,0.2l-0.2-0.4
		c-0.5-1.1,0.8-0.9,0.8-1.7c0.1,0.1,0.1,0.2,0.2,0.2c0.1-1.2,1-2.2,1.5-3.3c0.1,0.1,0.3,0.3,0.5,0.4c-0.4-0.3-0.3-0.7-0.2-1
		c0.5,0.1-0.1-0.7,0.3-0.9l0.1,0.1c-0.3-0.5,0.5-0.2,0.1-0.7l0.4,0.1c-0.5-0.5,0.5-0.1,0.3-0.5l-0.1-0.1c0-0.3,0.3-0.2,0.3-0.4
		l0.1,0c0.1-0.5,0.5-0.5,0.1-0.8c0.5,0.1,0,0.5,0.6,0.6c0.1-0.4,0.2-0.8,0.3-1.1c0.1-0.4,0.2-0.7,0.4-1.1c0.3-0.7,0.7-1.4,1-2.1
		c0.3-0.1,0.4-0.1,0.6-0.1c0-0.2,0.1-0.6-0.1-0.8c0,0,0.3,0,0.3,0c0.3-0.2-0.4-0.5-0.1-0.7c0.1,0.2,0.2,0.3,0.4,0.3
		c-0.3-0.4-0.1-0.7-0.1-1c0.1,0.1,0.1,0.2,0.3,0.2c-0.3-0.5,0.3-0.5,0.1-0.9l0.2,0.2c0.5-0.3-0.6-0.4-0.2-0.7
		c0.1,0.1,0.2,0.1,0.3,0.2c-0.4-0.5,0-1.1-0.1-1.5c0,0,0.1,0,0.1,0c0-0.4,0.3-0.8,0.2-1.3c0.2-0.1,0.7,0.3,0.7-0.2
		c-0.6-0.1,0-0.8-0.8-0.7c0.2-0.3,0.6-0.8,0.4-1.1c0.2,0.2,0.8,0,0.8,0.3l0.4-0.1c0.2,0.1-0.1,0.2,0.2,0.2c0-0.2-0.1-0.7,0-0.8
		c-0.3-0.4-1-0.8-0.9-1.2c0.2,0.3,0.7,0,0.8,0.2l-1-0.9c0-0.2,0.5,0.1,0.4-0.2c-0.2,0-0.2-0.1-0.4-0.2c0.1,0-0.1-0.6,0.6-0.6
		c0.2,0,0.1,0.3,0.3,0.1c0-0.3-0.2-0.3-0.1-0.6h0.1c0.1-0.2-0.2-0.6-0.5-0.4c0,0.1,0.4,0,0.2,0.2c-0.3-0.2-0.4-0.5-0.3-0.8
		c0.1,0.1,0.2,0.1,0.4,0.2c-0.4-0.4-0.5-0.9-0.7-1.3c-0.3,0,0.5,0.2,0.3,0.3c0.5-0.5-0.5-1.2,0.2-1.5c0,0.1-0.4,0-0.3,0
		c0.1-0.2,0.5-0.2,0.3-0.4c0.2,0-0.1-0.2-0.1-0.4c-0.2-0.1,0.1,0,0.1,0.1c-0.2-0.3-0.5-1.2-0.2-1.8c-0.2,0-0.6-0.4-0.6-0.5l0.4,0.1
		c0.2-0.1,0-0.4,0.3-0.5c-0.5-0.3,0.4,1.1,0,0.7c0.3-0.1-0.6-0.5-0.1-0.4c0-0.3-0.4-0.5-0.1-0.8c-0.1,0.1,0.5,0.2,0.5,0
		c-0.1-0.4-0.2-0.1-0.3-0.4l-0.2-0.2c-0.4,0,0-0.3-0.4-0.2c0.3,0-0.2-0.5,0.4-0.5l0.5,0c0-0.2-0.5-0.2-0.7-0.4c0,0,0.1-0.1,0.2-0.1
		c-0.8,0,0-0.4-0.5-0.5c0.2-0.3,0-0.8,0.5-1c-0.2-0.2-0.5-0.4-0.4-0.8c0.1,0,0.1,0.1,0.3,0.1c0.2-0.2,0-0.2-0.1-0.4
		c0.1,0,0.4-0.4,0.6-0.6c-0.2-0.2-0.6-0.1-0.9-0.1c0.7-0.3-0.5-0.6,0.1-1c0.1,0.1,0.4,0.3,0.6,0.1c0.7-0.3-0.6-0.4-0.3-0.8l-0.6,0.2
		c0.3-0.2-0.5-0.5,0.2-0.5c-0.2-0.1,0.1-0.5-0.5-0.3c0.4-0.7-0.5-1.4,0.4-2c-0.1-0.1,0-0.3-0.3-0.2c-0.3,0.2,0.3,0.1,0.1,0.2
		c0-0.1-0.2-0.1-0.3,0c0.1-0.2,0.1-0.4,0.6-0.3c0.3-0.5-1.1-0.2-1-0.8c0.2,0,0.3-0.1,0.2-0.2l-0.5-0.2c0-0.4,0.5-0.3,0.9-0.4
		c-0.1-0.2-0.2-0.4-0.5-0.4l0.5-0.4c-0.3,0.3-0.3-0.1-0.4-0.1l0.1,0.1c0.2-0.1,0-0.3-0.1-0.4c-0.2,0.1-0.3,0.3-0.3,0.5
		c-0.2,0-0.2-0.2-0.4-0.3c0.4-0.1,0.2-0.4,0.2-0.5c0-0.2-0.4-0.1-0.4-0.1c0.2-0.1,0-0.3,0.3-0.2c0.1,0-0.2,0.2,0,0.2
		c0.1-0.1,0.5-0.2,0.1-0.4c-0.2-0.1-0.8,0.3-0.6-0.1c0.1,0,0.3,0,0.5,0l0.1-0.4l-0.4,0.1c0.1-0.1,0.1,0,0.2-0.1
		c-0.4,0-0.3-0.4-0.7-0.3c-0.1-0.1,0.1-0.4,0.1-0.5l0,0c0.2-0.2-0.1-0.4-0.3-0.5l0.1,0c0-0.1-0.1-0.3-0.4-0.4
		c0.2-0.3,1.3-0.6,0.7-0.7c-0.1-0.2-0.8-0.1-1,0c0.1-0.5-0.7-0.8-0.3-1.4c-0.2,0-0.2,0.1-0.4,0c-0.1-0.7-1-1.1-0.5-1.9
		c0.2,0.1,0.3-0.1,0.5-0.2c-0.4,0,0.2-0.3-0.3-0.1c-0.3,0.2-0.5,0.2-0.5,0.5c-0.3-0.3-0.6-0.8-0.4-1.2c-0.1,0.2-0.2,0.1-0.3,0.1
		c0.5-0.2,0.4-0.5,0.2-0.6l-0.3,0.1l0.2-0.3c-0.1,0-0.7,0.2-0.5-0.1c0.1-0.1,0.2-0.1,0.3-0.2c-0.3-0.1-0.9-0.1-0.8-0.5l0.3-0.4
		c-0.1-0.1-0.4-0.1-0.5,0.1c0-0.5-0.1-0.8,0.2-1.1c-1.2-0.1-1.9-1-2.2-1.7l0.2-0.1c0.1-0.3-0.4,0.1-0.4-0.1c0.2-0.1,0.3-0.4,0.7-0.5
		c0-0.4-0.6-0.1-0.8-0.2c-0.3,0.2,0.3,0-0.1,0.2c-0.1,0,0-0.5-0.5-0.3c0.1-0.2,0.4-0.3,0.6-0.4l-0.3,0c0.3-0.5,1.2-0.1,1.6-0.8
		l-0.2-0.1c0.3-0.5,0.8,0.1,0.6-0.4c-0.3,0-1,0.2-1.1,0.5c-0.4-0.3-1.1,0.5-1.3,0.1c0.2-0.3,0.3,0.2,0.5-0.1
		c0.2-0.4-0.4-0.2-0.4-0.4c0,0.3-0.5,0.4-0.7,0.4c0-0.3,0.5-0.2,0.3-0.5c-0.3,0.1-0.6,0-0.6,0.4c-0.6,0.3-0.1-0.4-0.6-0.2
		c0.3-0.4,1-0.4,1-0.8c-0.3,0.3-0.7,0-1.1,0.6c0-0.2,0.3-0.4,0.5-0.5c0.1-0.3-0.9,0.1-0.3-0.5l-0.4,0.2c0.1-0.1,0.1-0.3,0.2-0.5
		c-0.1-0.1-0.8,0-0.3-0.5c-0.1,0-0.3-0.3-0.6,0.1c0,0.4,0.4,0,0.1,0.5c0.3-0.5-0.3-0.2-0.5-0.2l0.2-0.2c-0.1,0-0.2-0.2-0.5,0
		c0.2,0,0.3-0.2,0.3-0.3l-0.3,0.2c-0.4-0.1,0.5-0.5,0.2-0.7h0.4c-0.1,0,0.1-0.3-0.1-0.4c-0.3,0.2-0.7,0.4-0.9,0.5
		c-0.2,0,0.2-0.3-0.2-0.2l0.5-0.1c0.1,0,0.3-0.5,0.2-0.7c-0.2,0-0.8,0.1-0.7,0.5c-0.1-0.1-0.1-0.4,0.2-0.5c-0.3-0.1-0.2,0.3-0.6,0.3
		c0.1-0.2,0.1-0.7,0.2-1.1l0.6-0.2l-0.1-0.1c0.5-0.2,0.2-0.3,0.6-0.6c0-0.1-0.3-0.1-0.4-0.1c-0.3,0.8-1.1,0.5-1.5,1.1
		c-0.5-0.2,1-1.5-0.1-1c-0.1,0.2-0.6,0.4-0.3,0.5c-0.2-0.3-0.7,0.4-0.7-0.1c0.4,0,0.3-0.7,0.9-0.8c-0.2,0.2,0,0.3,0.1,0.3
		c0.1-0.3,0.5-0.5,0.3-0.7c-0.2-0.1-0.4-0.2-0.6,0.1c-0.3,0.3,0.2,0.1-0.1,0.4c-0.4-0.1,0-0.6-0.6-0.2c0.2,0.1,0,0.5-0.2,0.7l-0.3,0
		l0.2-0.2c-0.2-0.4-0.4,0.3-0.7,0l0.2-0.5c0.4-0.3,0.3,0.6,0.8-0.1c-0.2-0.2-0.5,0-0.6-0.3c0.1,0,0.2,0,0.2,0c0-0.1,0.5-0.9-0.1-0.7
		c-0.3,0-0.2,0.2-0.4,0.4c-0.4-0.2-0.7-0.1-0.9-0.2c0.4-0.4-0.3-0.4,0.3-0.6c-0.1,0.4,0.4,0.7,0.9,0.4c0.3-0.6,0.2,0.3,0.7-0.1
		c-0.3-0.2,0.2-0.7,0.4-1.1c-0.1-0.1-0.2,0-0.3,0c-0.3,0.3-0.2,0.4-0.5,0.7c-0.2-0.3-0.7-0.4-1.1-0.2c0-0.2,0.3-0.5,0.5-0.5
		c-0.5-0.2-0.8-0.5-1.1-0.9c-0.2,0.7-0.5-0.2-0.7,0.4c0.1,0.3,0,0.8-0.3,0.9c-0.1-0.1,0.2-0.2,0.2-0.4c-0.4,0.2,0.1-0.6-0.4-0.3
		c0.5,0.1,0.6-0.6,0.9-1c-0.4,0,0.2-0.3,0-0.5c-0.4,0-0.9,0-1.2-0.1c-0.1-0.6-0.9-0.6-1.2-0.8c0-0.3,0.4-0.8,0.3-1
		c-0.2-0.1-0.2,0.6-0.4,0.2l0.1-0.1c-0.2,0-0.4-0.7-0.9-0.1l0.4-0.5c0-0.1-0.2,0-0.2,0c0.1-0.2,0.1-0.4,0.3-0.4
		c0-0.5-0.5-0.2-0.7-0.3l0,0.4c-0.5,0-0.6-0.4-1.1-0.5l0.2-0.3l-0.3,0.1c0.2-0.3,0.1-0.6-0.1-0.4l1-0.5c0.1,0.3-0.4,0.3-0.5,0.7
		c-0.1,0.3,0.3,0.4,0.6,0.2c-0.1-0.1-0.2,0-0.3,0c0.2-0.5,0.4-0.3,0.7-0.6c-0.1,0-0.1-0.2-0.2-0.1c0.3-0.1,0.4-0.1,0.7,0
		c-0.3,0.1-0.1,0.3-0.2,0.4c0.2-0.4,0.5-0.4,0.8-0.1c-0.1,0.6,0.7,0.1,1,0.4c-0.4,0.3-0.8,0.5-1,0.5c0.1,0.3,0.2,0.1,0.3,0.5
		c0.3-0.2,0.6-0.6,1-0.6l-0.2,0.3c0.3,0,0.6-0.4,0.9-0.1c0.4,0.5,1,0.8,1.3,1.2l-0.2,0.3c0.6-0.4,0.9,0.3,1.3,0.3
		c0.3,0.6,1.3,0.5,1.1,1.2c1,0.5,1.9,1,2.6,1.8l-0.5,0.2c0.4-0.1-0.1,0.3,0.1,0.4c0.1-0.5,0.5-0.2,0.9-0.3c0.1,0.6,0.8,0.8,1.4,0.9
		l-0.2,0.2c0.8-0.1,0.8,0.6,1,1.1c-0.1,0.1-0.2,0.4-0.1,0.5c0.6-0.1,0.7,0,1.2,0.1c0.2,0.2,0.5,0.7,0.5,1.1c1.4,0.5,1.8,1.8,2.9,2.6
		l-0.3,0.3c1.4,0.6,1.7,2.3,2.5,3l-0.6,0.3c0,0.4,0.5,0.6,0.9,0.3c0,0.4,0.7,0.6,0.3,1c0.1,0.4,0.5,0.2,0.7,0.4
		c0.1,0.8,0.2,1,0.6,1.5l0-0.2c-0.2,0-0.4,0.1-0.4,0.3c0.3,0.1,0.2,0.9,0.8,0.3c-0.1,0.4,0.2,0.7,0.5,1.1c0.2,0.4,0.4,0.7,0.3,1.1
		c0.2-0.1,0.3,0,0.5,0c0.2,0.6,0.1,1.3,0.6,1.7c-0.1,0.1-0.4,0-0.3,0.2c0.1,0.1,0.3-0.1,0.5,0c0.7,0.8,0.2,2.1,0.6,2.9
		c0.5,0.7,0.7,1.5,0.9,2.3c0.2,0.8,0.4,1.6,0.5,2.4h-0.2c0.7,0.4-0.4,1.3,0.6,1.6c-0.1,0.1,0,0.5-0.3,0.4c0.5,0.3-0.2,1.2,0.4,1.7
		c0-0.1,0-0.1-0.1-0.1c-0.3,0.6,0.2,1.1,0,1.8c-0.1-0.1-0.1-0.2-0.3-0.2c-0.3,0.3,0.8,0.5,0,0.7c0,0.1,0.4,0.1,0.4,0
		c-0.2,1.4,0.3,2.9,0.5,4.3c-0.5,1-1.3,0-0.8,0.9c-0.2,0.1,0.3,0.1,0.1,0.1c0.2,0.3-0.9,0.5-0.5,0.7c0.5-0.1,0.3,0.2,0.6,0.2
		c-0.3,0.6-0.8,0.7-0.4,1.2l-0.2,0c0.7,0.6,0.2,1.3,1,1.8c-0.2,3.2-0.3,6.4-1.2,9.5c-1.1,3-1.9,6-3.8,8.7c-0.9,0.4-1,0.4-1.1,1.2
		c-0.1-0.1-0.1-0.1-0.2-0.1c0.5,0.3-0.2,0.5,0.2,0.9c-0.7,1-1.2,2-1.8,3c0.1-0.2-0.3-0.5-0.4-0.3l0.2,0.4l-0.2,0
		c0,0.2,0.1,0.5,0.3,0.4c-1.4,2.8-4.2,4.5-6.2,6.7c-0.7,0.3-1.3,1.2-1.7,1.8c-1.1,0.5-2.2,0.9-3.1,1.5c-1,0.5-1.8,1.1-2.6,2
		C250.8,118.5,250.2,117.2,250.7,116.4L250.7,116.4z"/>
	<path class="st0" d="M245.3,34.9c-0.1,0.3,0.1,0.5-0.3,0.8C245.1,35.4,245.2,35.1,245.3,34.9z"/>
	<path class="st0" d="M249.4,40.8c0.1-0.1,0,0.1,0,0.2c-0.1,0-0.3,0.1-0.2,0C249.2,41,249.3,40.9,249.4,40.8z"/>
	<path class="st0" d="M250.6,42c-0.2,0.2-0.6,0.1-0.8,0L250.6,42z"/>
	<path class="st0" d="M251.1,43.7c0,0.2-0.1,0.3-0.3,0.2C250.9,43.8,251,43.8,251.1,43.7z"/>
	<path class="st0" d="M251.5,43.4c0.1,0.1,0,0.2,0,0.4C251.7,43.6,251.2,43.6,251.5,43.4z"/>
	<path class="st0" d="M253.4,46.1c0.1,0,0.3,0,0.2,0.3C253.7,46.2,253.1,46.3,253.4,46.1z"/>
	<path class="st0" d="M254.8,46.9C254.8,46.9,254.8,47,254.8,46.9c0.1,0.2-0.1,0.3-0.2,0.2L254.8,46.9L254.8,46.9z"/>
	<polygon class="st0" points="267.4,71.2 267.3,71 267.5,71 	"/>
	<path class="st0" d="M267.5,83.4c0.1,0.2-0.2,0.1-0.3,0.1C267.2,83.4,267.5,83.6,267.5,83.4z"/>
	<polygon class="st0" points="267.3,90.3 267.4,90.2 267.8,90.4 	"/>
	<path class="st0" d="M204.8,122.8c0.4,0.1-0.1-0.5,0.3-0.1C205,122.9,204.9,123,204.8,122.8z"/>
	<path class="st0" d="M203.8,33c-0.4,0.9-1.1,1.1-1.9,1.4c-0.7,0.3-1.5,0.6-2,1.3c-0.1,0.1-0.3-0.6-0.6-0.3c-0.4,0.7-1.1,1.3-2,1.7
		c-0.9,0.4-1.9,0.6-2.9,0.9l0-0.2c-0.4,0.1-0.3,0.9-0.7,1c-0.1-0.1,0-0.2-0.2-0.3c0.2,0.4-0.4,0.5-0.4,0.9c-0.2,0-0.4-0.3-0.6-0.3
		l0.1,0.5c0.2,1.2-1.1,0.8-1.4,1.8c0-0.1,0-0.2-0.2-0.2c-0.3,0.7-0.7,1.2-1.2,1.7c-0.5,0.6-1,1.1-1.4,1.6c-0.1-0.1-0.2-0.4-0.4-0.5
		c0.3,0.4,0.1,0.8-0.1,1.1c-0.5-0.2-0.1,0.8-0.6,0.9l-0.1-0.1c0.2,0.6-0.5,0.2-0.2,0.8l-0.4-0.1c0.4,0.6-0.6,0.1-0.5,0.5l0.1,0.1
		c0,0.3-0.4,0.2-0.5,0.4l-0.1,0c-0.2,0.5-0.7,0.5-0.3,0.9c-0.5-0.1,0.2-0.5-0.5-0.7c-0.3,0.9-0.8,1.7-1.3,2.4
		c-0.5,0.7-1,1.5-1.5,2.3c-0.3,0-0.4,0.1-0.6,0.1c0,0.2-0.3,0.6-0.1,0.9c0,0-0.3,0-0.4,0c-0.3,0.2,0.3,0.6,0,0.8
		c-0.1-0.2-0.2-0.3-0.4-0.4c0.2,0.5,0,0.8-0.1,1.2c0-0.1-0.1-0.2-0.2-0.3c0.2,0.6-0.4,0.6-0.3,1l-0.2-0.3c-0.6,0.3,0.5,0.4,0.1,0.8
		c0-0.1-0.2-0.2-0.3-0.2c0.3,0.6-0.2,1.2-0.2,1.7c0,0-0.1-0.1-0.1-0.1c-0.1,0.5-0.5,0.9-0.5,1.5c-0.2,0.1-0.7-0.4-0.8,0.2
		c0.6,0.2-0.1,0.9,0.7,0.9c-0.2,0.4-0.7,0.9-0.6,1.3c-0.2-0.3-0.8-0.1-0.7-0.4l-0.5,0.1c-0.2-0.1,0.2-0.2-0.2-0.3
		c0,0.2,0,0.8-0.2,0.9c0.2,0.5,0.8,1,0.7,1.5c-0.2-0.3-0.7-0.1-0.7-0.3l0.9,1.1c0,0.2-0.5-0.1-0.4,0.2c0.2,0,0.2,0.2,0.3,0.3
		c-0.1,0,0,0.8-0.7,0.7c-0.2,0,0-0.3-0.3-0.2c-0.1,0.3,0.1,0.4,0,0.7h-0.1c-0.2,0.2,0.1,0.7,0.5,0.5c0.1-0.1-0.4,0-0.1-0.2
		c0.3,0.2,0.3,0.6,0.2,1c-0.1-0.1-0.2-0.2-0.4-0.2c0.4,0.5,0.4,1,0.5,1.6c0.3,0.1-0.5-0.3-0.3-0.3c-0.5,0.5,0.3,1.4-0.4,1.8
		c0-0.1,0.4,0,0.3,0c-0.1,0.3-0.5,0.2-0.4,0.4c-0.2,0,0,0.3,0.1,0.5c0.2,0.1-0.1,0-0.1-0.1c0.2,0.3,0.4,1.5,0,2.1
		c0.2,0,0.5,0.5,0.5,0.6l-0.4-0.1c-0.2,0.1,0,0.5-0.4,0.5c0.4,0.4-0.2-1.3,0.1-0.8c-0.3,0.1,0.5,0.7,0,0.5c0,0.3,0.4,0.6,0,0.9
		c0.1-0.1-0.5-0.3-0.5,0c0,0.4,0.2,0.1,0.3,0.5l0.2,0.2c0.4,0-0.1,0.4,0.4,0.2c-0.3,0,0.2,0.6-0.5,0.6l-0.5-0.1
		c0,0.2,0.5,0.3,0.7,0.5c0,0-0.2,0.1-0.2,0.1c0.7,0-0.1,0.5,0.5,0.7c-0.3,0.4,0,1-0.5,1.2c0.2,0.3,0.5,0.6,0.4,0.9
		c-0.1-0.1-0.1-0.2-0.3-0.2c-0.2,0.2,0,0.3,0.1,0.5c-0.1,0-0.4,0.5-0.7,0.7c0.2,0.3,0.6,0.2,0.9,0.2c-0.7,0.3,0.5,0.8-0.1,1.2
		c-0.1-0.1-0.4-0.4-0.6-0.1c-0.7,0.3,0.6,0.5,0.3,1l0.6-0.2c-0.3,0.2,0.4,0.6-0.2,0.6c0.2,0.1-0.1,0.5,0.5,0.4
		c-0.4,0.8,0.5,1.7-0.5,2.3c0.1,0.1,0.1,0.4,0.4,0.2c0.3-0.2-0.3-0.2-0.1-0.3c0,0.1,0.2,0.1,0.3,0.1c-0.1,0.2-0.1,0.4-0.6,0.3
		c-0.3,0.6,1.1,0.3,1,1c-0.2,0-0.3,0.1-0.2,0.3l0.5,0.3c0,0.4-0.5,0.4-0.9,0.5c0.1,0.2,0.2,0.5,0.5,0.5l-0.5,0.4
		c0.3-0.3,0.3,0.1,0.4,0.2l-0.1-0.1c-0.2,0.1,0,0.3,0.1,0.4c0.2-0.1,0.3-0.4,0.3-0.5c0.2,0.1,0.2,0.2,0.5,0.3
		c-0.4,0-0.2,0.4-0.2,0.6c0,0.2,0.4,0.1,0.4,0.2c-0.2,0.1,0,0.3-0.3,0.2c-0.1,0,0.2-0.2,0-0.3c-0.1,0.2-0.5,0.2-0.1,0.5
		c0.2,0.1,0.8-0.3,0.6,0.2c-0.1-0.1-0.3,0-0.5-0.1l-0.1,0.4l0.4-0.1c-0.1,0.1-0.1,0-0.2,0.1c0.4,0,0.3,0.5,0.7,0.5
		c0.1,0.2-0.2,0.5-0.1,0.6l0,0c-0.1,0.3,0.1,0.5,0.4,0.6l-0.1,0c0,0.1,0.2,0.4,0.4,0.4c-0.2,0.4-1.3,0.6-0.7,0.7
		c0.1,0.3,0.8,0.2,1,0c0,0.6,0.7,1,0.4,1.6c0.2,0,0.2-0.1,0.4,0c0.2,0.8,1.1,1.3,0.7,2.2c-0.2-0.1-0.3,0.1-0.5,0.2
		c0.4,0-0.2,0.4,0.3,0.2c0.3-0.2,0.5-0.2,0.5-0.5c0.3,0.4,0.7,1,0.5,1.4c0.1-0.2,0.2-0.1,0.3-0.1c-0.5,0.2-0.4,0.6-0.1,0.7l0.3-0.1
		l-0.2,0.3c0.1,0,0.7-0.2,0.5,0.1c-0.1,0.1-0.2,0.1-0.3,0.2c0.4,0.1,0.9,0.2,0.8,0.6l-0.3,0.5c0.1,0.1,0.5,0.1,0.5-0.1
		c0,0.6,0.2,0.9-0.1,1.2c1.3,0.2,2,1.2,2.6,2l-0.2,0.1c0,0.4,0.4-0.1,0.4,0.1c-0.2,0.1-0.3,0.5-0.6,0.5c0,0.5,0.6,0.1,0.9,0.3
		c0.3-0.2-0.3,0,0.1-0.2c0.1,0,0.1,0.6,0.5,0.3c-0.1,0.2-0.4,0.4-0.6,0.4l0.3,0c-0.3,0.6-1.2,0.1-1.6,0.8l0.2,0.1
		c-0.3,0.5-0.8-0.1-0.6,0.4c0.3,0,1-0.2,1.1-0.5c0.4,0.3,1-0.5,1.3-0.1c-0.1,0.3-0.3-0.3-0.6,0c-0.2,0.5,0.5,0.3,0.5,0.5
		c0-0.3,0.5-0.5,0.7-0.4c0,0.4-0.5,0.2-0.2,0.5c0.3-0.1,0.7,0,0.6-0.4c0.6-0.3,0.1,0.4,0.6,0.2c-0.2,0.4-1,0.4-0.9,0.9
		c0.3-0.3,0.8,0,1.1-0.6c0,0.2-0.2,0.4-0.5,0.5c0,0.4,1-0.1,0.4,0.5l0.4-0.2c-0.1,0.1-0.1,0.3-0.2,0.6c0.1,0.2,0.9,0.1,0.4,0.5
		c0.1,0,0.4,0.4,0.6-0.1c0-0.4-0.5,0-0.2-0.5c-0.2,0.5,0.3,0.2,0.6,0.2l-0.2,0.2c0.1,0,0.3,0.2,0.5,0c-0.2,0-0.3,0.2-0.2,0.3
		l0.3-0.2c0.4,0.1-0.4,0.6,0,0.8h-0.4c0.1,0-0.1,0.4,0.2,0.4c0.3-0.2,0.7-0.4,0.9-0.6c0.3,0-0.2,0.4,0.2,0.2l-0.5,0.1
		c-0.1,0-0.3,0.6,0,0.8c0.2,0,0.8-0.1,0.7-0.5c0.1,0.1,0.1,0.4-0.2,0.5c0.3,0.1,0.2-0.3,0.6-0.3c-0.1,0.3,0,0.8-0.1,1.2l-0.6,0.2
		l0.2,0.1c-0.5,0.2-0.1,0.4-0.6,0.6c0.1,0.1,0.3,0.1,0.5,0.1c0.2-0.9,1.1-0.5,1.5-1.2c0.5,0.2-0.9,1.6,0.3,1.1
		c0-0.2,0.6-0.5,0.2-0.5c0.2,0.3,0.7-0.4,0.8,0.1c-0.4,0-0.2,0.8-0.8,0.9c0.2-0.2-0.1-0.3-0.2-0.3c-0.1,0.3-0.5,0.6-0.2,0.8
		c0.2,0.1,0.5,0.3,0.7-0.1c0.3-0.3-0.3-0.2,0.1-0.4c0.4,0.2,0.1,0.7,0.7,0.2c-0.3-0.1,0-0.5,0.2-0.7c0.1,0,0.2,0,0.3,0l-0.2,0.2
		c0.3,0.5,0.4-0.3,0.8,0l-0.2,0.6c-0.4,0.3-0.5-0.6-0.8,0.1c0.2,0.2,0.6,0,0.7,0.3c-0.1,0-0.2,0-0.3,0c0.1,0.1-0.4,1,0.3,0.8
		c0.3,0,0.2-0.2,0.4-0.4c0.5,0.2,0.8,0.1,1.1,0.2c-0.4,0.4,0.4,0.4-0.2,0.6c0-0.4-0.6-0.8-1-0.5c-0.2,0.7-0.3-0.3-0.8,0.2
		c0.3,0.3-0.1,0.8-0.3,1.2c0.1,0.1,0.3,0,0.4,0c0.3-0.3,0.2-0.4,0.4-0.7c0.3,0.4,0.8,0.5,1.2,0.3c0,0.3-0.2,0.6-0.4,0.5
		c0.5,0.2,1,0.6,1.4,1c0.1-0.8,0.6,0.2,0.7-0.4c-0.2-0.3-0.1-0.8,0.2-1c0.1,0.1-0.2,0.2-0.2,0.4c0.4-0.2,0,0.7,0.5,0.3
		c-0.5-0.1-0.5,0.6-0.9,1c0.5-0.1-0.2,0.3,0.1,0.5c0.5,0,1,0,1.4,0.1c0.2,0.7,1.2,0.6,1.6,0.8c0.1,0.4-0.3,0.8-0.1,1
		c0.3,0.1,0.1-0.7,0.4-0.2l-0.1,0.1c0.2-0.1,0.6,0.8,1.1,0l-0.4,0.5c0,0.1,0.2,0,0.3,0c-0.1,0.2-0.1,0.4-0.3,0.5
		c0.1,0.5,0.6,0.2,0.9,0.3l0-0.4c0.6-0.1,0.8,0.4,1.3,0.5l-0.2,0.3l0.4-0.1c-0.2,0.3,0,0.6,0.2,0.4l-1.1,0.5
		c-0.1-0.3,0.4-0.3,0.4-0.7c0-0.3-0.5-0.4-0.7-0.1c0.2,0.1,0.2,0,0.4,0c-0.2,0.5-0.4,0.4-0.7,0.6c0.1,0,0.2,0.2,0.2,0.1
		c-0.3,0.2-0.5,0.1-0.8,0c0.3-0.1,0-0.3,0.2-0.4c-0.2,0.4-0.6,0.4-0.9,0.1c0-0.6-0.8,0-1.2-0.4c0.4-0.3,0.8-0.5,1.1-0.6
		c-0.2-0.3-0.3-0.1-0.4-0.5c-0.3,0.2-0.6,0.7-1,0.7l0.1-0.3c-0.4,0-0.6,0.4-1,0.2c-0.6-0.5-1.3-0.9-1.7-1.2l0.2-0.3
		c-0.6,0.5-1-0.3-1.6-0.3c-0.5-0.6-1.5-0.6-1.5-1.3c-1.2-0.5-2.3-1-3.2-1.9l0.5-0.2c-0.4,0.1,0.1-0.3-0.2-0.4c0,0.5-0.6,0.2-0.9,0.3
		c-0.2-0.7-1.1-0.9-1.7-0.9l0.2-0.3c-0.8,0.1-0.9-0.8-1.3-1.3c0-0.1,0.2-0.5,0-0.6c-0.7,0.1-0.8,0-1.4-0.2c-0.3-0.3-0.6-0.9-0.7-1.3
		c-0.8-0.3-1.3-0.8-1.8-1.4c-0.5-0.5-1-1.2-1.6-1.6l0.2-0.3c-1.6-0.6-2-2.7-3-3.5l0.7-0.3c0-0.4-0.6-0.7-1-0.3
		c0-0.5-0.8-0.7-0.4-1.2c-0.1-0.4-0.5-0.3-0.8-0.5c-0.2-0.9-0.4-1.1-0.8-1.7c0,0.1,0,0.1,0,0.2c0.2,0,0.4-0.1,0.4-0.3
		c-0.3-0.2-0.3-1-0.9-0.4c0.1-1-1.2-1.6-0.9-2.6c-0.2,0.1-0.3,0-0.5,0c-0.3-0.7-0.1-1.6-0.7-2c0.1-0.1,0.4,0,0.3-0.2
		c-0.1-0.1-0.3,0.1-0.5-0.1c-0.8-1-0.3-2.4-0.7-3.4c-1-1.7-1.1-3.8-1.5-5.5h0.2c-0.7-0.5,0.5-1.5-0.5-1.9c0.1-0.2,0-0.6,0.3-0.5
		c-0.5-0.5,0.2-1.4-0.3-2c0,0.1,0,0.1,0.1,0.2c0.3-0.7-0.2-1.3,0.1-2.1c0.1,0.1,0.1,0.2,0.3,0.2c0.3-0.3-0.7-0.7,0.1-0.8
		c0-0.2-0.4-0.1-0.4,0c0.1-0.8,0.1-1.7,0-2.5c-0.1-0.9-0.2-1.7-0.2-2.6c0.6-1.2,1.3,0,0.9-1c0.2-0.1-0.3-0.1-0.1-0.1
		c-0.2-0.4,0.9-0.5,0.6-0.8c-0.5,0-0.2-0.2-0.5-0.2c0.4-0.7,0.8-0.8,0.5-1.4l0.2,0.1c-0.6-0.8,0-1.5-0.8-2.2c0.2-1.9,0.7-3.8,1-5.6
		c0.5-1.8,1-3.7,1.8-5.4c0.8-1.7,1.7-3.3,2.6-5c0.5-0.8,1-1.6,1.5-2.4c0.3-0.4,0.5-0.8,0.8-1.1c0.3-0.4,0.6-0.7,1-1.1
		c1.1-0.3,1.1-0.4,1.5-1.3c0.1,0.1,0,0.2,0.2,0.2c-0.4-0.4,0.4-0.6,0-1c1-1,1.7-2.1,2.8-3.1c-0.1,0.2,0.1,0.6,0.3,0.4l0-0.4l0.1,0.1
		c0.1-0.2,0-0.5-0.2-0.5c0.6-0.7,1.2-1.4,1.9-2c0.7-0.6,1.5-1.1,2.2-1.6c0.7-0.5,1.5-0.9,2.3-1.4c0.8-0.4,1.5-1,2.2-1.5
		c0.8-0.2,1.7-1,2.5-1.6c1.4-0.3,2.7-0.6,3.9-1c1.2-0.4,2.4-0.8,3.6-1.6C204.5,30.8,204.7,32.3,203.8,33L203.8,33z"/>
	<path class="st0" d="M204.3,122.7c0-0.3-0.2-0.5,0.2-0.8C204.4,122.1,204.4,122.4,204.3,122.7z"/>
	<path class="st0" d="M198.5,116.7c0,0.1,0-0.1,0-0.2c0.1,0,0.3-0.1,0.3,0C198.7,116.5,198.6,116.6,198.5,116.7z"/>
	<path class="st0" d="M197,115.5c0.2-0.2,0.6-0.1,0.8,0L197,115.5z"/>
	<path class="st0" d="M196.1,113.6c0-0.3,0.1-0.3,0.3-0.2C196.3,113.6,196.2,113.6,196.1,113.6z"/>
	<path class="st0" d="M195.7,114c-0.1-0.1-0.1-0.2-0.1-0.4C195.5,113.8,196,113.7,195.7,114z"/>
	<path class="st0" d="M193.1,111.1c-0.1,0-0.4,0-0.3-0.3C192.8,111,193.4,110.8,193.1,111.1z"/>
	<path class="st0" d="M191.5,110.2c0,0,0-0.1-0.1-0.1c0-0.1,0.2-0.2,0.3-0.2L191.5,110.2L191.5,110.2z"/>
	<polygon class="st0" points="176.6,81.7 176.8,81.9 176.5,81.9 	"/>
	<path class="st0" d="M177.6,67.3c-0.1-0.2,0.2-0.1,0.3-0.1C177.9,67.3,177.6,67,177.6,67.3z"/>
	<polygon class="st0" points="178.9,59.3 178.8,59.4 178.4,59.2 	"/>
	<path class="st0" d="M206.3,47.7c-0.1-0.2-0.4,0.1-0.2-0.1C206.3,47.6,206.4,47.6,206.3,47.7z"/>
	<path class="st0" d="M206,104.4c-1.3-0.7,0-1.6-0.8-2.3c0-0.1,0.7,0,0.5-0.2c-1-0.7-0.4-1.9,0.4-2.7l0.2,0c0.1-0.2-0.5-0.4-0.4-0.5
		c0.1,0,0.2,0.1,0.4,0c-0.4,0-0.2-0.3-0.5-0.4c0.2-0.1,0.5-0.1,0.6-0.1l-0.5-0.1c-1.1-0.3,0.1-0.7-0.5-1.1c0.1,0,0.2,0.1,0.3,0
		c-0.7-0.6-0.5-1.4-0.8-2.1c0.2,0,0.5,0,0.6,0c-0.5,0-0.6-0.2-0.7-0.4c0.5-0.1-0.5-0.3-0.2-0.5l0.1,0c-0.5-0.2,0.3-0.2-0.3-0.4
		l0.4-0.1c-0.7-0.1,0.4-0.2,0-0.4h-0.1c-0.2-0.1,0.2-0.2,0.1-0.3h0.1c-0.2-0.3,0.2-0.4-0.3-0.4c0.4-0.1,0.2,0.3,0.8,0.1
		c-0.5-0.9-0.4-1.8-0.5-2.7c0.2-0.1,0.3-0.2,0.5-0.2c-0.1-0.1-0.1-0.3-0.4-0.4c0,0,0.3-0.1,0.3-0.1c0.2-0.2-0.6-0.2-0.3-0.4
		c0.1,0.1,0.3,0.1,0.5,0.1c-0.4-0.1-0.3-0.4-0.5-0.5c0.1,0,0.1,0.1,0.3,0.1c-0.5-0.2,0.1-0.4-0.2-0.5l0.3,0.1
		c0.4-0.3-0.7-0.1-0.4-0.3c0.1,0.1,0.2,0,0.3,0c-0.6-0.2-0.4-0.6-0.6-0.8c0,0,0.1,0,0.1,0c-0.1-0.2,0.1-0.5-0.1-0.8
		c0.1-0.1,0.8,0,0.6-0.2c-0.6,0-0.3-0.4-1-0.3c0.1-0.2,0.3-0.6,0.1-0.7c0.2,0.1,0.8-0.1,0.8,0.1l0.4-0.1c0.2,0-0.1,0.1,0.2,0.1
		c0-0.1-0.3-0.4-0.2-0.4c-0.4-0.2-1.1-0.3-1.2-0.6c0.2,0.1,0.7-0.1,0.8,0l-1.2-0.4c0-0.1,0.5,0,0.3-0.1c-0.2,0-0.3,0-0.4-0.1
		c0.1,0-0.2-0.4,0.5-0.4c0.2,0,0.1,0.1,0.3,0c0-0.2-0.2-0.2-0.2-0.4h0.1c0.1-0.1-0.3-0.3-0.6-0.2c0,0.1,0.4,0,0.2,0.1
		c-0.4-0.1-0.5-0.3-0.5-0.5c0.1,0.1,0.3,0,0.4,0.1c-0.5-0.2-0.6-0.5-0.8-0.7c-0.3,0,0.5,0.1,0.4,0.1c0.4-0.3-0.6-0.7,0-1
		c0,0-0.4,0-0.3,0c0-0.2,0.5-0.1,0.3-0.2c0.2,0-0.1-0.1-0.2-0.2c-0.2,0,0.1,0,0.2,0.1c-0.2-0.1-0.6-0.7-0.2-1.1
		c-0.2,0-0.6-0.2-0.6-0.3l0.4,0c0.2-0.1,0-0.3,0.3-0.3c-0.5-0.2,0.4,0.6,0,0.4c0.3-0.1-0.6-0.3-0.1-0.3c0-0.2-0.4-0.3-0.1-0.5
		c-0.1,0,0.5,0.1,0.5,0c-0.1-0.2-0.2-0.1-0.3-0.2l-0.2-0.1c-0.4,0,0-0.2-0.4-0.1c0.3,0-0.2-0.3,0.4-0.3l0.5,0c0-0.1-0.5-0.2-0.7-0.2
		c0,0,0.1,0,0.2,0c-0.7,0,0.1-0.2-0.5-0.4c0.3-0.2,0-0.5,0.5-0.6c-0.2-0.2-0.5-0.3-0.3-0.5c0.1,0,0.1,0.1,0.2,0.1
		c0.2-0.1,0-0.1-0.1-0.2c0.1,0,0.4-0.2,0.7-0.4c-0.2-0.1-0.6-0.1-0.9-0.1c0.7-0.1-0.5-0.4,0.2-0.6c0.1,0,0.4,0.2,0.5,0.1
		c0.7-0.1-0.5-0.3-0.2-0.5l-0.6,0.1c0.4-0.1-0.3-0.3,0.3-0.3c-0.2-0.1,0.2-0.3-0.4-0.2c0.5-0.4-0.3-0.9,0.8-1.1
		c-0.1,0,0-0.2-0.3-0.2c-0.3,0.1,0.2,0.1,0,0.2c0,0-0.2-0.1-0.3-0.1c0.1-0.1,0.2-0.2,0.7-0.1c0.4-0.3-1-0.3-0.8-0.6
		c0.2,0,0.3,0,0.3-0.1l-0.4-0.2c0.1-0.2,0.6-0.1,1-0.1c-0.1-0.1,0-0.2-0.4-0.3l0.5-0.1c-0.4,0.1-0.2-0.1-0.3-0.1l0.1,0
		c0.2,0,0.1-0.1,0-0.2c-0.3,0-0.4,0.1-0.4,0.2c-0.2-0.1-0.1-0.1-0.4-0.2c0.4,0,0.3-0.2,0.3-0.3c0.1-0.1-0.4-0.1-0.3-0.1
		c0.2,0,0-0.2,0.3-0.1c0.1,0-0.2,0.1,0,0.1c0.2-0.1,0.5-0.1,0.3-0.2c-0.2-0.1-0.8,0-0.5-0.2c0.1,0,0.3,0.1,0.4,0.1l0.2-0.2h-0.4
		c0.1,0,0.1,0,0.2,0c-0.4-0.1-0.1-0.3-0.6-0.3c0-0.1,0.3-0.2,0.3-0.3l0,0c0.2-0.1,0.1-0.3-0.2-0.4h0.1c0-0.1,0-0.2-0.2-0.3
		c0.3-0.1,1.4,0,0.9-0.2c0-0.2-0.7-0.2-0.9-0.2c0.2-0.3-0.4-0.6,0.2-0.9c-0.2,0-0.2,0-0.3-0.1c0.2-0.4-0.4-0.9,0.3-1.2
		c0.2,0.1,0.4,0,0.6,0c-0.3-0.1,0.3-0.1-0.2-0.1c-0.3,0-0.5,0-0.6,0.1c-0.2-0.2-0.2-0.6,0.1-0.8c-0.2,0.1-0.3,0-0.4,0
		c0.5,0,0.6-0.2,0.4-0.3l-0.3,0l0.3-0.1c-0.1,0-0.7-0.1-0.4-0.2c0.1,0,0.2,0,0.3,0c-0.3-0.1-0.7-0.3-0.4-0.5l0.5-0.1
		c0-0.1-0.3-0.2-0.5-0.1c0.3-0.3,0.3-0.4,0.7-0.5c-1-0.5-1-1.1-1-1.6l0.2,0c0.2-0.1-0.4-0.1-0.3-0.2c0.2,0,0.5-0.1,0.8,0
		c0.3-0.2-0.4-0.3-0.5-0.4c-0.3,0,0.2,0.1-0.2,0.1c-0.1,0,0.2-0.3-0.2-0.3c0.2,0,0.5,0,0.8,0l-0.2-0.1c0.6-0.1,1,0.4,1.7,0.2
		l-0.1-0.1c0.5-0.1,0.6,0.3,0.8,0c-0.2-0.1-1-0.2-1.2-0.1c-0.1-0.3-1.2-0.1-1.1-0.4c0.3-0.1,0.1,0.2,0.5,0.2
		c0.4-0.1-0.2-0.3-0.1-0.4c-0.2,0.1-0.7,0-0.8-0.1c0.2-0.1,0.5,0.1,0.5-0.1c-0.3,0-0.5-0.2-0.7-0.1c-0.6-0.1,0.2-0.2-0.3-0.3
		c0.5-0.1,1,0.2,1.3,0c-0.4,0-0.6-0.3-1.2-0.2c0.1-0.1,0.5-0.1,0.7,0c0.3-0.1-0.8-0.3,0.1-0.3l-0.4,0c0.1,0,0.2-0.1,0.5-0.2
		c0-0.1-0.6-0.4,0.1-0.3c-0.1,0,0-0.3-0.5-0.2c-0.3,0.1,0.3,0.2-0.3,0.3c0.5-0.1-0.1-0.2-0.2-0.3h0.3c-0.1-0.1,0-0.2-0.3-0.2
		c0.2,0,0.3,0,0.4,0l-0.4-0.1c-0.2-0.2,0.7,0,0.6-0.3l0.3,0.2c-0.1,0,0.3-0.1,0.2-0.2c-0.4,0-0.8-0.1-1.1-0.1c-0.2-0.1,0.4,0,0-0.2
		l0.4,0.1c0.1,0,0.6-0.1,0.6-0.3c-0.1-0.1-0.6-0.3-0.8-0.1c0-0.1,0.2-0.2,0.5-0.1c-0.1-0.2-0.4,0-0.6-0.1c0.2-0.1,0.6-0.3,0.9-0.4
		l0.6,0.2v-0.1c0.5,0.1,0.4-0.1,0.9,0c0.1-0.1-0.1-0.2-0.2-0.2c-0.8,0.2-1.1-0.2-1.8-0.2c-0.2-0.3,1.8-0.2,0.6-0.5
		c-0.2,0-0.8-0.1-0.5,0.1c0.1-0.2-0.7-0.1-0.4-0.3c0.3,0.2,0.8-0.2,1.2,0.1c-0.2,0-0.2,0.1-0.1,0.2c0.3-0.1,0.7,0,0.7-0.2
		c-0.1-0.1-0.1-0.3-0.5-0.2c-0.4,0,0,0.2-0.4,0.1c-0.2-0.2,0.5-0.3-0.2-0.4c0.1,0.1-0.4,0.2-0.7,0.2l-0.2-0.2l0.3,0
		c0.2-0.3-0.5-0.1-0.4-0.3l0.6-0.1c0.5,0.1-0.2,0.4,0.6,0.3c0-0.2-0.4-0.2-0.2-0.4c0.1,0,0.1,0.1,0.2,0.1c0-0.1,1.1-0.1,0.5-0.4
		c-0.2-0.1-0.3,0-0.6,0c-0.1-0.3-0.4-0.4-0.4-0.5c0.6,0,0-0.3,0.6-0.1c-0.3,0.1-0.3,0.5,0.2,0.6c0.7-0.1-0.1,0.2,0.6,0.3
		c0-0.2,0.7-0.2,1.1-0.2c0-0.1-0.2-0.1-0.2-0.2c-0.4,0-0.4,0-0.8,0.1c0.1-0.2-0.1-0.5-0.5-0.6c0.2-0.1,0.6-0.1,0.7,0
		c-0.1-0.3-0.1-0.6,0.1-0.9c-0.7,0.2-0.2-0.3-0.7-0.2c-0.2,0.1-0.6,0.3-0.9,0.2c0-0.1,0.3,0,0.4,0c-0.4-0.1,0.6-0.2,0-0.3
		c0.2,0.3,0.8,0,1.3,0.1c-0.3-0.2,0.4,0,0.4-0.2c-0.3-0.2-0.5-0.4-0.6-0.6c0.5-0.3,0-0.7,0-0.9c0.3-0.1,0.9,0,1-0.2
		c0-0.2-0.6,0.1-0.4-0.1l0.1,0c-0.1-0.1,0.4-0.4-0.5-0.5l0.6,0.1c0.1,0-0.1-0.1-0.2-0.1c0.2,0,0.4,0,0.5,0c0.4-0.1-0.1-0.3-0.1-0.5
		l-0.4,0.1c-0.3-0.3,0.1-0.5,0-0.7h0.4l-0.2-0.1c0.4,0,0.6-0.1,0.3-0.2l0.9,0.4c-0.2,0.1-0.5-0.1-0.8,0c-0.3,0.1-0.2,0.3,0.1,0.3
		c0-0.1,0-0.1-0.2-0.2c0.5,0,0.5,0.1,0.8,0.2c0,0,0.1-0.1,0-0.1c0.2,0.1,0.3,0.2,0.3,0.4c-0.2-0.1-0.3,0.1-0.5,0
		c0.5,0,0.6,0.2,0.5,0.4c-0.5,0.1,0.3,0.4,0.2,0.6c-0.5-0.1-0.8-0.2-1-0.4c-0.2,0.1,0,0.2-0.2,0.3c0.3,0.1,0.9,0.1,1.1,0.3H206
		c0.2,0.2,0.7,0.2,0.6,0.4c-0.2,0.4-0.2,0.7-0.2,1H206c0.7,0.2,0.3,0.5,0.6,0.7c-0.3,0.4,0.3,0.8-0.3,1c0.3,0.6,0.5,1.2,0.4,1.8
		l-0.5-0.1c0.4,0.1-0.3,0.1-0.2,0.2c0.4-0.1,0.5,0.2,0.8,0.2c-0.4,0.3,0,0.7,0.4,0.9h-0.3c0.6,0.3,0.1,0.6,0,0.9
		c-0.1,0-0.5,0.1-0.4,0.2c0.5,0.2,0.5,0.3,0.8,0.5c0,0.2-0.1,0.5-0.3,0.7c0.8,0.7,0.3,1.4,0.7,2.2l-0.4,0c0.8,0.7,0.1,1.6,0.5,2.2
		l-0.7-0.1c-0.2,0.2,0.2,0.4,0.7,0.4c-0.2,0.2,0.3,0.5-0.2,0.6c-0.1,0.2,0.3,0.2,0.4,0.4c-0.3,0.4-0.2,0.5-0.1,0.9l0-0.1
		c-0.2,0-0.4,0-0.5,0c0.2,0.1-0.2,0.5,0.6,0.4c-0.5,0.4,0.4,0.9-0.2,1.3c0.2,0,0.3,0.1,0.4,0.1c0,0.4-0.4,0.7-0.1,1
		c-0.1,0.1-0.4-0.1-0.4,0c0.1,0.1,0.3,0,0.4,0.1c0.4,0.6-0.4,1.1-0.3,1.6c0.4,0.9,0.2,1.9,0.3,2.7H208c0.6,0.3-0.6,0.7,0.3,0.9
		c-0.2,0.1-0.1,0.3-0.4,0.2c0.4,0.2-0.4,0.6,0.1,1c0,0,0,0-0.1-0.1c-0.4,0.3,0.1,0.6-0.2,1c-0.1,0-0.1-0.1-0.3-0.1
		c-0.3,0.1,0.7,0.3-0.1,0.4c0,0.1,0.4,0.1,0.4,0c-0.3,0.8,0.2,1.6,0.4,2.4c-0.5,0.6-1.3,0-0.7,0.5c-0.2,0,0.3,0,0.1,0
		c0.2,0.2-0.9,0.3-0.5,0.4c0.5,0,0.3,0.1,0.6,0.1c-0.3,0.4-0.8,0.4-0.4,0.7l-0.2,0c0.7,0.3,0.3,0.7,1.2,1c0.2,1.8,0.6,3.5,0.7,5.3
		c-0.2,1.8,0.2,3.5-0.2,5.2c-0.7,0.4-0.7,0.5-0.4,0.9c-0.1,0-0.1,0-0.2,0c0.5,0,0,0.3,0.6,0.4c-0.1,0.7,0,1.3,0,1.9
		c-0.1-0.1-0.5-0.2-0.5,0l0.3,0.1l-0.2,0c0.1,0.1,0.3,0.2,0.5,0.1c0.5,1.7-0.6,3.4-0.5,5c-0.2,0.4,0,1,0.1,1.4
		c-0.7,1.3-1.3,2.4-0.8,3.7c0,0-1.4-0.2-1.8-0.7L206,104.4z"/>
	<path class="st0" d="M206.3,48c-0.3,0-0.4,0.2-0.8,0.1C205.8,48,206.1,48,206.3,48z"/>
	<path class="st0" d="M203.5,51.9c0.1,0-0.1,0.1-0.2,0.1c0,0-0.2-0.1-0.1-0.1C203.2,51.9,203.4,51.9,203.5,51.9L203.5,51.9z"/>
	<path class="st0" d="M203.3,52.9c-0.2,0-0.4-0.2-0.5-0.4L203.3,52.9z"/>
	<path class="st0" d="M202.3,53.9c-0.2,0.1-0.3,0.1-0.3,0C202.1,53.8,202.2,53.8,202.3,53.9z"/>
	<path class="st0" d="M202.9,53.9c0,0.1-0.1,0.1-0.3,0.1C202.8,54.1,202.5,53.9,202.9,53.9z"/>
	<path class="st0" d="M202.2,56c0,0,0.2,0.2,0,0.2C202.3,56.1,201.8,55.9,202.2,56z"/>
	<path class="st0" d="M202.5,56.9C202.5,56.9,202.5,57,202.5,56.9c-0.1,0.1-0.3,0.1-0.3,0L202.5,56.9z"/>
	<polygon class="st0" points="203.5,74.2 203.4,74.1 203.6,74.1 	"/>
	<path class="st0" d="M203.5,81.7c0.2,0.1-0.2,0.1-0.3,0.1C203.2,81.7,203.6,81.9,203.5,81.7z"/>
	<polygon class="st0" points="204.8,85.8 204.7,85.8 205.2,85.8 	"/>
	<path class="st0" d="M235.6,48.9c0-0.3-0.4-0.1-0.1-0.2C235.6,48.8,235.8,48.9,235.6,48.9z"/>
	<path class="st0" d="M242.2,102.1c-1.5,0.1-1-1.4-2.2-1.6c-0.1,0,0.6-0.4,0.3-0.5c-1.3-0.1-1.5-1.5-1.5-2.7l0.2-0.1
		c0-0.2-0.7,0-0.7-0.2c0.1-0.1,0.2-0.1,0.3-0.2c-0.3,0.2-0.3-0.2-0.6-0.1c0.1-0.1,0.3-0.3,0.4-0.5l-0.4,0.2c-1,0.4-0.4-0.7-1.1-0.7
		c0.1,0,0.2-0.1,0.2-0.1c-0.9-0.2-1.3-1-2-1.4c0.2-0.1,0.4-0.2,0.5-0.4c-0.4,0.2-0.6,0.1-0.8,0c0.3-0.4-0.6,0-0.5-0.4l0.1,0
		c-0.5,0.1,0.1-0.4-0.5-0.1l0.2-0.3c-0.6,0.3,0.1-0.4-0.2-0.3l-0.1,0.1c-0.2,0,0-0.3-0.2-0.3l0.1-0.1c-0.3-0.1-0.1-0.5-0.5-0.2
		c0.3-0.3,0.3,0.1,0.7-0.4c-1-0.5-1.5-1.4-2.1-2.2c0.1-0.2,0.1-0.3,0.3-0.5c-0.2,0-0.3-0.2-0.6-0.2c0,0,0.2-0.2,0.2-0.3
		c0.1-0.3-0.6,0.2-0.5-0.1c0.2,0,0.3-0.1,0.5-0.2c-0.4,0.1-0.5-0.1-0.8-0.2c0.1,0,0.2,0,0.3-0.1c-0.5,0.1-0.2-0.4-0.5-0.4l0.3-0.1
		c0.1-0.5-0.6,0.3-0.6,0c0.1,0,0.2-0.1,0.3-0.2c-0.6,0.1-0.7-0.3-1-0.4c0,0,0.1-0.1,0.1-0.1c-0.2-0.2-0.2-0.5-0.6-0.6
		c0-0.2,0.6-0.4,0.4-0.6c-0.5,0.4-0.5-0.2-1,0.3c-0.1-0.3-0.1-0.7-0.4-0.7c0.3,0,0.5-0.5,0.7-0.4l0.2-0.3c0.2-0.1,0,0.2,0.2,0
		c-0.1-0.1-0.5-0.2-0.4-0.3c-0.4,0.1-1.1,0.3-1.3,0.1c0.3,0,0.5-0.5,0.7-0.5l-1.2,0.3c-0.1-0.1,0.4-0.3,0.2-0.3
		c-0.1,0.1-0.2,0.1-0.4,0.1c0-0.1-0.4-0.3,0.1-0.6c0.2-0.2,0.2,0.1,0.3-0.2c-0.1-0.1-0.3,0-0.4-0.2l0.1,0c0-0.1-0.4-0.1-0.6,0.2
		c0,0.1,0.3-0.2,0.2,0c-0.3,0.1-0.5,0-0.7-0.1c0.1,0,0.2-0.1,0.4-0.2c-0.5,0.1-0.8-0.1-1.2-0.2c-0.2,0.2,0.5-0.2,0.4-0.1
		c0.1-0.5-0.9-0.3-0.6-0.9c0.1,0-0.3,0.3-0.3,0.2c-0.1-0.2,0.3-0.4,0.1-0.4c0.2-0.1-0.2-0.1-0.3-0.1c-0.2,0,0.1-0.1,0.2,0
		c-0.3,0-1-0.3-0.9-0.8c-0.1,0.1-0.6,0.2-0.7,0.1l0.3-0.2c0.1-0.2-0.2-0.2,0.1-0.4c-0.5,0.1,0.7,0.4,0.3,0.4
		c0.2-0.2-0.7,0.1-0.2-0.2c-0.1-0.1-0.6,0-0.4-0.4c0,0.1,0.5-0.2,0.4-0.3c-0.2-0.2-0.2,0-0.4,0h-0.2c-0.3,0.2-0.1-0.2-0.4,0.1
		c0.2-0.2-0.4-0.2,0.2-0.5l0.4-0.2c-0.1-0.1-0.5,0.1-0.8,0.2c0,0,0.1-0.1,0.2-0.2c-0.6,0.4-0.1-0.2-0.6,0c0.1-0.3-0.3-0.5,0-0.8
		c-0.3-0.1-0.7-0.1-0.7-0.5c0.1,0,0.2,0.1,0.3,0c0.1-0.2-0.1-0.2-0.3-0.3c0.1,0,0.2-0.5,0.4-0.7c-0.3-0.1-0.7,0.1-1,0.1
		c0.3-0.2,0.1-0.3-0.2-0.4c-0.2-0.1-0.5-0.3-0.2-0.5c0.2,0.1,0.6,0.2,0.7,0c0.5-0.2,0-0.2-0.4-0.4c-0.1-0.1-0.1-0.2,0.1-0.3
		l-0.7,0.1c0.5-0.2-0.1-0.5,0.5-0.5c-0.2-0.1,0.4-0.4-0.2-0.4c0.4-0.3,0.5-0.6,0.6-1c0.2-0.3,0.4-0.6,0.9-0.6c0-0.1,0.1-0.2-0.2-0.3
		c-0.3-0.1,0.2,0.2-0.1,0.2c0-0.1-0.1-0.2-0.2-0.2c0.2-0.1,0.3-0.1,0.7,0.2c0.5-0.1-0.8-0.7-0.4-0.9c0.2,0.1,0.3,0.1,0.3,0l-0.3-0.4
		c0.2-0.2,0.6,0.1,0.9,0.3c0-0.1,0.1-0.3-0.2-0.5l0.5,0.1c-0.4-0.1-0.2-0.2-0.2-0.3l0.1,0.1c0.2,0,0.1-0.1,0.1-0.2
		c-0.2-0.1-0.4,0-0.5,0c-0.1-0.1-0.1-0.2-0.2-0.4c0.4,0.2,0.3-0.1,0.4-0.1c0.1-0.1-0.3-0.3-0.2-0.3c0.2,0.1,0.1-0.2,0.3,0
		c0,0.1-0.2,0-0.1,0.1c0.2,0,0.5,0.2,0.3-0.1c-0.1-0.2-0.7-0.3-0.4-0.4c0.1,0.1,0.2,0.2,0.3,0.3l0.3-0.1l-0.3-0.2
		c0.1,0,0.1,0,0.2,0.1c-0.3-0.2,0-0.3-0.3-0.6c0-0.1,0.3-0.1,0.4-0.2l0,0c0.2,0,0.2-0.2,0-0.4l0.1,0c0.1,0,0.1-0.2-0.1-0.4
		c0.3,0,1.3,0.5,1,0.2c0.1-0.2-0.5-0.5-0.8-0.6c0.4-0.2,0-0.8,0.6-0.8c-0.1-0.1-0.2-0.1-0.2-0.2c0.3-0.4,0-1.1,0.8-1.1
		c0.1,0.2,0.3,0.2,0.5,0.3c-0.2-0.2,0.4,0-0.1-0.2c-0.3-0.1-0.5-0.2-0.6-0.2c0-0.3,0.1-0.7,0.5-0.7c-0.2,0-0.2-0.1-0.3-0.2
		c0.5,0.2,0.6,0.1,0.5-0.1l-0.3-0.2l0.3,0c-0.1-0.1-0.6-0.4-0.2-0.4c0.1,0,0.2,0.1,0.3,0.1c-0.2-0.3-0.5-0.6-0.2-0.7l0.5,0.1
		c0-0.1-0.2-0.3-0.4-0.3c0.4-0.1,0.5-0.3,0.9-0.2c-0.7-0.9-0.4-1.6-0.1-2.1l0.2,0.1c0.3,0-0.3-0.3-0.2-0.3c0.2,0.1,0.5,0.1,0.7,0.3
		c0.3-0.1-0.3-0.5-0.3-0.6c-0.3-0.2,0.1,0.2-0.2,0c-0.1-0.1,0.4-0.2-0.1-0.4c0.2,0,0.5,0.2,0.7,0.3l-0.2-0.2
		c0.6,0.1,0.8,0.8,1.5,0.9v-0.1c0.5,0.1,0.4,0.5,0.7,0.3c-0.2-0.2-0.7-0.6-1-0.6c0-0.3-1-0.6-0.8-0.9c0.3,0,0,0.2,0.3,0.4
		c0.4,0-0.1-0.4,0.1-0.4c-0.2,0-0.6-0.3-0.7-0.4c0.3,0,0.4,0.3,0.5,0.1c-0.2-0.1-0.3-0.4-0.6-0.4c-0.5-0.4,0.3-0.1-0.1-0.5
		c0.4,0.1,0.8,0.6,1.2,0.5c-0.4-0.1-0.4-0.5-1-0.7c0.2,0,0.5,0.1,0.7,0.3c0.3,0-0.6-0.6,0.2-0.3l-0.4-0.2c0.2,0,0.3,0,0.5,0
		c0.1-0.1-0.4-0.6,0.2-0.3c0-0.1,0.1-0.3-0.4-0.4c-0.3,0,0.2,0.3-0.4,0.1c0.5,0.1,0-0.2-0.1-0.4l0.2,0.1c-0.1-0.1,0-0.2-0.2-0.4
		c0.1,0.1,0.3,0.2,0.4,0.1l-0.3-0.2c-0.1-0.3,0.7,0.2,0.7,0l0.2,0.3c0-0.1,0.3,0,0.3-0.1c-0.3-0.2-0.7-0.5-0.9-0.6
		c-0.1-0.2,0.4,0.1,0.1-0.1l0.3,0.3c0.1,0.1,0.6,0.1,0.7,0c-0.1-0.1-0.5-0.5-0.7-0.5c0-0.1,0.3-0.1,0.5,0.1c0-0.2-0.4-0.1-0.5-0.4
		c0.2,0,0.7,0,1,0l0.5,0.4l0.1-0.1c0.4,0.4,0.4,0.1,0.8,0.4c0.1,0,0-0.2-0.1-0.3c-0.8-0.1-0.9-0.7-1.6-1c0-0.4,1.7,0.6,0.8-0.2
		c-0.2,0-0.6-0.4-0.5-0.1c0.2-0.1-0.6-0.4-0.2-0.5c0.2,0.3,0.8,0.1,1,0.6c-0.2-0.1-0.2,0-0.2,0.1c0.3,0,0.7,0.3,0.8,0.1
		c0-0.1,0-0.3-0.3-0.5c-0.4-0.2,0,0.2-0.4-0.1c0-0.3,0.6,0-0.1-0.5c0,0.2-0.4,0-0.7-0.1l-0.1-0.2l0.2,0.1c0.3-0.2-0.4-0.3-0.2-0.5
		l0.6,0.1c0.4,0.3-0.4,0.3,0.3,0.6c0.1-0.2-0.2-0.4,0-0.5c0,0.1,0,0.1,0.1,0.2c0,0,1,0.3,0.6-0.2c-0.2-0.2-0.2-0.1-0.5-0.3
		c0-0.3-0.2-0.5-0.1-0.7c0.5,0.3,0.2-0.3,0.6,0.2c-0.3,0-0.5,0.4-0.1,0.7c0.7,0.2-0.2,0.2,0.4,0.5c0.1-0.2,0.7,0.1,1.1,0.2
		c0.1,0-0.1-0.2-0.1-0.2c-0.4-0.2-0.4-0.1-0.8-0.3c0.2-0.2,0.1-0.5-0.2-0.8c0.2,0,0.6,0.2,0.6,0.3c0-0.3,0.2-0.6,0.5-0.9
		c-0.7-0.1,0-0.4-0.6-0.5c-0.2,0.1-0.7,0-0.9-0.2c0.1-0.1,0.3,0.1,0.4,0.1c-0.3-0.3,0.6,0.1,0.2-0.3c0.1,0.4,0.7,0.4,1.2,0.7
		c-0.2-0.3,0.3,0.2,0.4,0c-0.2-0.3-0.3-0.6-0.3-0.9c0.6,0,0.3-0.7,0.4-0.9c0.3,0,0.8,0.3,1,0.2c0.1-0.2-0.6-0.2-0.3-0.3l0.1,0.1
		c-0.1-0.1,0.6-0.3-0.2-0.7l0.5,0.4c0.1,0,0-0.1-0.1-0.2c0.2,0.1,0.4,0.1,0.5,0.2c0.5,0,0.1-0.3,0.1-0.5l-0.4-0.1
		c-0.1-0.4,0.3-0.4,0.3-0.7l0.3,0.2L234,49c0.3,0.2,0.6,0.1,0.3-0.1l0.6,0.8c-0.2,0-0.3-0.3-0.7-0.4c-0.3-0.1-0.3,0.2,0,0.4
		c0.1-0.1,0-0.1-0.1-0.2c0.5,0.2,0.4,0.3,0.7,0.5c0-0.1,0.2-0.1,0-0.1c0.2,0.2,0.2,0.3,0.1,0.5c-0.1-0.2-0.3-0.1-0.4-0.2
		c0.4,0.2,0.5,0.4,0.2,0.6c-0.5-0.1,0.1,0.5-0.1,0.7c-0.4-0.3-0.7-0.6-0.8-0.8c-0.3,0-0.1,0.2-0.3,0.2c0.3,0.2,0.7,0.5,0.8,0.8
		l-0.3-0.1c0.1,0.2,0.5,0.5,0.3,0.6c-0.3,0.3-0.5,0.7-0.7,0.9l-0.3-0.1c0.6,0.5,0,0.6,0.2,1c-0.5,0.2-0.1,0.9-0.7,0.9
		c-0.1,0.7-0.1,1.4-0.5,2l-0.4-0.3c0.3,0.3-0.3,0-0.3,0.1c0.4,0,0.4,0.4,0.6,0.6c-0.5,0.1-0.3,0.7-0.1,1.1l-0.3-0.1
		c0.5,0.5-0.2,0.6-0.5,0.9c-0.2,0-0.5-0.1-0.5,0c0.4,0.4,0.3,0.5,0.5,0.9c-0.1,0.2-0.4,0.4-0.6,0.5c0.4,1-0.4,1.5-0.4,2.5l-0.4-0.1
		c0.4,1.1-0.7,1.6-0.6,2.4l-0.6-0.4c-0.3,0.1,0,0.5,0.4,0.7c-0.3,0.1,0.1,0.6-0.5,0.5c-0.2,0.1,0.2,0.4,0.2,0.6
		c-0.4,0.3-0.4,0.5-0.5,0.9l0.1-0.1c-0.1-0.1-0.4-0.2-0.5-0.2c0.1,0.2-0.4,0.4,0.4,0.6c-0.6,0.2-0.1,1.1-0.8,1.2
		c0.2,0.1,0.2,0.2,0.3,0.3c-0.2,0.4-0.7,0.5-0.5,1c-0.1,0-0.3-0.2-0.4-0.1c0,0.1,0.3,0.1,0.3,0.3c0.1,0.7-0.9,1-1.1,1.5
		c0,0.5-0.2,1-0.4,1.5c-0.1,0.2-0.2,0.5-0.3,0.7l-0.1,0.3c0,0,0,0,0,0.1l-0.2,0c0.3,0.1,0.1,0.1,0,0.1c-0.1,0-0.3,0.1,0.2,0.1
		c-0.2,0-0.1,0-0.5,0c0.2,0,0.1,0.1,0,0.1c-0.1,0-0.2,0.1,0.2,0.1c0,0,0,0-0.1,0c-0.3,0.2,0.2,0.1,0,0.3c-0.1,0-0.1,0-0.3,0.1
		c-0.2,0.2,0.7-0.2,0,0.2c0,0,0.3-0.2,0.3-0.2c0,0,0,0,0,0.1c0,0,0,0.1,0.1,0.1c0,0.1,0.1,0.2,0.2,0.3c0.1,0.2,0.3,0.3,0.5,0.5
		c0.3,0.3,0.8,0.6,1.1,0.9c0,0.8-1.1,0.8-0.3,0.9c-0.1,0.1,0.3-0.1,0.1,0c0.3,0-0.5,0.8-0.1,0.6c0.4-0.3,0.3-0.1,0.5-0.2
		c0,0.5-0.3,0.8,0.1,0.9l-0.2,0.1c0.8-0.1,0.7,0.5,1.6,0.2c1.3,1.5,2.8,2.9,4,4.4c1,1.7,2.4,3,3.2,4.9c-0.3,0.8-0.2,0.8,0.3,1
		c-0.1,0-0.1,0-0.2,0.1c0.5-0.3,0.2,0.3,0.7,0c0.3,0.6,0.8,1.1,1.3,1.7c-0.1-0.1-0.5,0.1-0.4,0.2l0.4-0.1l-0.1,0.1
		c0.1,0,0.4,0,0.5-0.2c1.5,1.3,1.7,3.4,2.8,4.8c0.1,0.5,0.6,0.9,1,1.2c0.2,1.6,0.5,3,1.7,3.8c0,0-1.3,0.7-1.9,0.4L242.2,102.1z"/>
	<path class="st0" d="M235.5,49.2c-0.3-0.1-0.5,0-0.8-0.3C235,49.1,235.3,49.1,235.5,49.2z"/>
	<path class="st0" d="M231.1,52c0.1,0-0.1,0-0.2,0c0-0.1-0.2-0.2,0-0.2C230.9,51.9,231,51.9,231.1,52L231.1,52z"/>
	<path class="st0" d="M230.4,52.9c-0.2-0.1-0.3-0.4-0.2-0.6L230.4,52.9z"/>
	<path class="st0" d="M229.1,53.4c-0.2,0-0.3-0.1-0.3-0.2C228.9,53.3,229,53.3,229.1,53.4z"/>
	<path class="st0" d="M229.6,53.7c0,0.1-0.2,0.1-0.3,0C229.4,53.9,229.2,53.5,229.6,53.7z"/>
	<path class="st0" d="M227.9,55.5c0,0.1,0.1,0.2-0.1,0.2C228,55.7,227.6,55.3,227.9,55.5z"/>
	<path class="st0" d="M227.8,56.6C227.8,56.6,227.7,56.6,227.8,56.6c-0.2,0.1-0.3-0.1-0.3-0.1L227.8,56.6L227.8,56.6z"/>
	<polygon class="st0" points="220,75.3 220,75.3 220,75.2 220.2,75.2 220,75.3 	"/>
	<path class="st0" d="M225.5,83c0.2,0-0.1,0.2-0.2,0.2C225.3,83.2,225.7,83.1,225.5,83z"/>
	<polygon class="st0" points="229.2,86 229.1,86 229.6,85.7 	"/>
	<path class="st0" d="M144.3,212.3c0.1,0.2,0.4-0.1,0.2,0.1C144.3,212.4,144.1,212.4,144.3,212.3z"/>
	<path class="st0" d="M144.6,150.6c1.3,0.7,0,1.7,0.8,2.5c0,0.1-0.7,0-0.5,0.2c1,0.8,0.4,2-0.4,3l-0.2-0.1c-0.1,0.2,0.5,0.4,0.4,0.6
		c-0.1,0-0.2-0.1-0.4,0c0.4,0,0.2,0.4,0.5,0.4c-0.2,0.1-0.5,0.1-0.6,0.2l0.5,0.1c1.1,0.3-0.1,0.8,0.5,1.2c-0.1,0-0.2-0.1-0.3,0
		c0.7,0.7,0.5,1.5,0.8,2.3c-0.2,0-0.5-0.1-0.6,0c0.5,0,0.6,0.3,0.7,0.5c-0.5,0.1,0.5,0.4,0.2,0.6l-0.1,0c0.5,0.2-0.3,0.3,0.3,0.4
		l-0.4,0.1c0.7,0.1-0.4,0.2,0,0.4h0.1c0.2,0.1-0.2,0.2-0.1,0.3h-0.1c0.2,0.3-0.2,0.5,0.3,0.5c-0.4,0.1-0.2-0.3-0.8-0.1
		c0.5,1,0.4,2,0.5,3c-0.2,0.1-0.3,0.2-0.5,0.2c0.1,0.1,0.1,0.4,0.4,0.5c0,0-0.3,0.1-0.3,0.1c-0.2,0.2,0.6,0.2,0.3,0.4
		c-0.1-0.1-0.3-0.1-0.5-0.1c0.4,0.2,0.3,0.4,0.5,0.6c-0.1,0-0.1-0.1-0.3-0.1c0.5,0.2-0.1,0.4,0.2,0.6l-0.3-0.1
		c-0.4,0.3,0.7,0.1,0.4,0.4c-0.1-0.1-0.2,0-0.3,0c0.6,0.2,0.4,0.6,0.6,0.9c0,0-0.1,0-0.1,0c0.1,0.3-0.1,0.5,0.1,0.8
		c-0.1,0.1-0.8,0-0.6,0.2c0.6,0,0.3,0.5,1,0.3c-0.1,0.2-0.3,0.6-0.1,0.8c-0.2-0.1-0.8,0.1-0.8-0.1l-0.4,0.1c-0.2,0,0.1-0.2-0.2-0.1
		c0,0.1,0.3,0.4,0.2,0.5c0.4,0.2,1.1,0.4,1.2,0.7c-0.2-0.1-0.7,0.1-0.8,0l1.2,0.4c0,0.1-0.5,0-0.3,0.2c0.2,0,0.3,0.1,0.4,0.1
		c-0.1,0,0.2,0.4-0.5,0.5c-0.2,0-0.1-0.2-0.3,0c0,0.2,0.2,0.2,0.2,0.4h-0.1c-0.1,0.1,0.3,0.4,0.6,0.2c0-0.1-0.4,0-0.2-0.1
		c0.4,0.1,0.5,0.3,0.5,0.5c-0.1-0.1-0.3-0.1-0.4-0.1c0.5,0.2,0.6,0.5,0.8,0.8c0.3,0-0.5-0.1-0.4-0.1c-0.4,0.4,0.6,0.7,0,1
		c0,0,0.4,0,0.3,0c0,0.2-0.5,0.2-0.3,0.3c-0.2,0,0.1,0.1,0.2,0.3c0.2,0.1-0.1,0-0.2-0.1c0.2,0.2,0.6,0.8,0.2,1.2
		c0.2,0,0.6,0.2,0.6,0.3l-0.4,0c-0.2,0.1,0,0.3-0.3,0.3c0.5,0.2-0.4-0.7,0-0.5c-0.3,0.1,0.6,0.3,0.1,0.3c0,0.2,0.4,0.3,0.1,0.5
		c0.1,0-0.5-0.1-0.5,0c0.1,0.2,0.2,0.1,0.3,0.3l0.2,0.1c0.4,0,0,0.2,0.4,0.1c-0.3,0,0.2,0.4-0.4,0.3l-0.5,0c0,0.1,0.5,0.2,0.7,0.3
		c0,0-0.1,0-0.2,0c0.7,0-0.1,0.2,0.5,0.4c-0.3,0.2,0,0.6-0.5,0.7c0.2,0.2,0.5,0.3,0.3,0.5c-0.1,0-0.1-0.1-0.2-0.1
		c-0.2,0.1,0,0.1,0.1,0.3c-0.1,0-0.4,0.2-0.7,0.4c0.2,0.2,0.6,0.1,0.9,0.1c-0.7,0.1,0.5,0.5-0.2,0.7c-0.1-0.1-0.4-0.2-0.5-0.1
		c-0.7,0.1,0.5,0.3,0.2,0.6l0.6-0.1c-0.4,0.1,0.3,0.4-0.3,0.3c0.2,0.1-0.2,0.3,0.4,0.3c-0.5,0.4,0.3,1-0.8,1.2
		c0.1,0.1,0,0.2,0.3,0.2c0.3-0.1-0.2-0.1,0-0.2c0,0,0.2,0.1,0.3,0.1c-0.1,0.1-0.2,0.2-0.7,0.1c-0.4,0.3,1,0.3,0.8,0.6
		c-0.2,0-0.3,0-0.3,0.1l0.4,0.2c-0.1,0.2-0.6,0.1-1,0.1c0.1,0.1,0,0.3,0.4,0.3l-0.5,0.1c0.4-0.1,0.2,0.1,0.3,0.2l-0.1-0.1
		c-0.2,0-0.1,0.2,0,0.2c0.3,0,0.4-0.2,0.4-0.2c0.2,0.1,0.1,0.2,0.4,0.2c-0.4,0-0.3,0.2-0.3,0.3c-0.1,0.1,0.4,0.1,0.3,0.2
		c-0.2,0,0,0.2-0.3,0.1c-0.1,0,0.2-0.1,0-0.1c-0.2,0.1-0.5,0.1-0.3,0.2c0.2,0.1,0.8,0,0.5,0.2c-0.1-0.1-0.3-0.1-0.4-0.1l-0.2,0.2
		h0.4c-0.1,0-0.1,0-0.2,0c0.4,0.1,0.1,0.3,0.6,0.4c0,0.1-0.3,0.2-0.3,0.3l0,0c-0.2,0.1-0.1,0.3,0.2,0.4h-0.1c0,0.1,0,0.2,0.2,0.3
		c-0.3,0.2-1.4,0.1-0.9,0.2c0,0.2,0.7,0.3,0.9,0.2c-0.2,0.3,0.4,0.7-0.2,0.9c0.2,0,0.2,0,0.3,0.1c-0.2,0.5,0.4,1-0.3,1.3
		c-0.2-0.1-0.4,0-0.6,0c0.3,0.1-0.3,0.1,0.2,0.2c0.3,0,0.5,0,0.6-0.1c0.2,0.3,0.2,0.7-0.1,0.8c0.2-0.1,0.3,0,0.4,0
		c-0.5,0-0.6,0.2-0.4,0.3l0.3,0l-0.3,0.1c0.1,0.1,0.7,0.1,0.4,0.2c-0.1,0-0.3,0-0.3,0c0.3,0.2,0.7,0.4,0.4,0.5l-0.5,0.1
		c0,0.1,0.3,0.2,0.5,0.1c-0.3,0.3-0.3,0.5-0.7,0.6c1,0.5,1,1.2,1,1.8l-0.2,0c-0.2,0.1,0.4,0.1,0.3,0.2c-0.2,0-0.5,0.1-0.8,0
		c-0.3,0.2,0.4,0.3,0.5,0.4c0.3,0-0.2-0.1,0.2-0.1c0.1,0-0.2,0.3,0.2,0.3c-0.2,0.1-0.5,0-0.8,0l0.2,0.1c-0.6,0.2-1-0.4-1.7-0.2
		l0.1,0.1c-0.5,0.1-0.6-0.3-0.8,0c0.2,0.1,1,0.2,1.2,0.1c0.1,0.3,1.2,0.1,1.1,0.4c-0.3,0.1-0.1-0.2-0.5-0.2
		c-0.4,0.1,0.2,0.3,0.1,0.4c0.2-0.1,0.7,0,0.8,0.1c-0.2,0.1-0.5-0.1-0.5,0.1c0.3,0,0.5,0.2,0.7,0.1c0.6,0.1-0.2,0.2,0.3,0.4
		c-0.5,0.1-1-0.2-1.3,0c0.4,0,0.6,0.3,1.2,0.2c-0.1,0.1-0.5,0.1-0.7,0c-0.3,0.1,0.8,0.3-0.1,0.4l0.4,0c-0.1,0-0.2,0.1-0.5,0.2
		c0,0.1,0.6,0.4-0.1,0.4c0.1,0,0,0.3,0.5,0.2c0.3-0.2-0.3-0.2,0.3-0.3c-0.5,0.1,0.1,0.2,0.2,0.3l-0.3,0c0.1,0.1,0,0.2,0.3,0.2
		c-0.2,0-0.3,0-0.4,0l0.4,0.1c0.2,0.2-0.7,0.1-0.6,0.3l-0.3-0.2c0.1,0-0.3,0.1-0.2,0.2c0.4,0,0.8,0.1,1.1,0.2c0.2,0.1-0.4,0.1,0,0.2
		l-0.4-0.2c-0.1,0-0.6,0.1-0.6,0.3c0.1,0.1,0.6,0.3,0.8,0.1c0,0.1-0.2,0.2-0.5,0.1c0.1,0.2,0.4,0,0.6,0.1c-0.2,0.1-0.6,0.3-0.9,0.4
		L147,203v0.1c-0.5-0.1-0.4,0.1-0.9,0c-0.1,0.1,0.1,0.2,0.2,0.2c0.8-0.2,1.1,0.3,1.8,0.2c0.2,0.3-1.8,0.2-0.6,0.5
		c0.2,0,0.8,0.1,0.5-0.1c-0.1,0.2,0.7,0.1,0.4,0.4c-0.3-0.2-0.8,0.2-1.2-0.1c0.2,0,0.2-0.1,0.1-0.2c-0.3,0.1-0.7,0-0.7,0.2
		c0.1,0.1,0.1,0.3,0.5,0.3c0.4,0,0-0.2,0.4-0.1c0.2,0.2-0.5,0.3,0.2,0.4c-0.1-0.2,0.4-0.2,0.7-0.2l0.2,0.2l-0.3,0
		c-0.2,0.3,0.5,0.1,0.4,0.4l-0.6,0.1c-0.5-0.1,0.2-0.4-0.6-0.4c0,0.2,0.4,0.2,0.2,0.4c-0.1,0-0.1-0.1-0.2-0.1c0,0.1-1.1,0.1-0.5,0.4
		c0.2,0.1,0.3,0,0.6,0c0.1,0.3,0.4,0.4,0.4,0.6c-0.6,0,0,0.3-0.6,0.1c0.3-0.1,0.3-0.5-0.2-0.6c-0.7,0.1,0.1-0.2-0.6-0.3
		c0,0.2-0.7,0.2-1.1,0.3c0,0.1,0.2,0.1,0.2,0.2c0.4,0,0.4-0.1,0.8-0.1c-0.1,0.3,0.1,0.5,0.5,0.7c-0.2,0.1-0.6,0.1-0.7,0
		c0.1,0.3,0.1,0.6-0.1,1c0.7-0.2,0.2,0.3,0.7,0.2c0.2-0.2,0.6-0.3,0.9-0.2c0,0.1-0.3,0-0.4,0c0.4,0.1-0.6,0.2,0,0.3
		c-0.2-0.3-0.8-0.1-1.3-0.1c0.3,0.2-0.4,0-0.4,0.2c0.3,0.2,0.5,0.5,0.6,0.7c-0.5,0.3,0,0.7,0,1c-0.3,0.1-0.9,0-1,0.2
		c0,0.2,0.6-0.1,0.4,0.1l-0.1,0c0.1,0.1-0.4,0.5,0.5,0.5l-0.6-0.1c-0.1,0,0.1,0.1,0.2,0.1c-0.2,0-0.4,0.1-0.5,0
		c-0.4,0.2,0.1,0.3,0.1,0.5l0.4-0.1c0.3,0.3-0.1,0.5,0,0.8h-0.4l0.2,0.2c-0.4,0-0.6,0.1-0.3,0.2l-0.9-0.4c0.2-0.1,0.5,0.1,0.8,0.1
		c0.3-0.1,0.2-0.3-0.1-0.4c0,0.1,0,0.1,0.2,0.2c-0.5,0-0.5-0.1-0.8-0.2c0,0-0.1,0.1,0,0.1c-0.2-0.1-0.3-0.2-0.3-0.4
		c0.2,0.1,0.3-0.1,0.5,0c-0.5,0-0.6-0.2-0.5-0.4c0.5-0.1-0.3-0.4-0.2-0.6c0.5,0.1,0.8,0.2,1,0.4c0.2-0.1,0-0.2,0.2-0.3
		c-0.3-0.1-0.9-0.1-1.1-0.3h0.3c-0.2-0.2-0.7-0.2-0.6-0.4c0.2-0.4,0.2-0.8,0.2-1.1h0.3c-0.7-0.2-0.3-0.6-0.6-0.8
		c0.3-0.4-0.3-0.8,0.3-1c-0.3-0.7-0.5-1.3-0.4-2l0.5,0.1c-0.4-0.1,0.3-0.1,0.2-0.2c-0.4,0.1-0.5-0.2-0.8-0.3c0.4-0.3,0-0.7-0.4-1
		h0.3c-0.6-0.3-0.1-0.6,0-1c0.1,0,0.5-0.1,0.4-0.2c-0.5-0.2-0.5-0.3-0.8-0.6c0-0.2,0.1-0.5,0.3-0.7c-0.8-0.8-0.3-1.5-0.7-2.4
		l0.4-0.1c-0.8-0.8-0.1-1.7-0.5-2.4l0.7,0.1c0.2-0.2-0.2-0.5-0.7-0.4c0.2-0.2-0.3-0.5,0.2-0.6c0.1-0.2-0.3-0.3-0.4-0.4
		c0.3-0.4,0.2-0.6,0.1-1l0,0.1c0.2,0,0.4,0,0.5,0c-0.2-0.1,0.2-0.5-0.6-0.4c0.5-0.4-0.4-1,0.2-1.4c-0.2,0-0.3-0.1-0.4-0.1
		c0-0.4,0.4-0.8,0.1-1.1c0.1-0.1,0.4,0.1,0.4-0.1c-0.1-0.1-0.3,0-0.4-0.1c-0.4-0.6,0.4-1.2,0.3-1.8c-0.4-1-0.2-2-0.3-3h0.2
		c-0.6-0.3,0.6-0.7-0.3-1c0.2-0.1,0.1-0.3,0.4-0.2c-0.4-0.2,0.4-0.7-0.1-1.1c0,0,0,0,0.1,0.1c0.4-0.4-0.1-0.7,0.2-1.1
		c0.1,0,0.1,0.1,0.3,0.1c0.3-0.1-0.7-0.4,0.1-0.4c0-0.1-0.4-0.1-0.4,0c0.3-0.9-0.2-1.8-0.4-2.6c0.5-0.6,1.3,0,0.7-0.5
		c0.2,0-0.3,0-0.1,0c-0.2-0.2,0.9-0.3,0.5-0.4c-0.5,0.1-0.3-0.1-0.6-0.1c0.3-0.4,0.8-0.5,0.4-0.8l0.2,0c-0.7-0.4-0.3-0.8-1.2-1.1
		c-0.2-2-0.6-3.9-0.7-5.8c0.2-1.9-0.2-3.8,0.2-5.7c0.7-0.5,0.7-0.5,0.4-1c0.1,0,0.1,0,0.2,0c-0.5,0,0-0.4-0.6-0.4
		c0.1-0.7,0-1.4,0-2.1c0.1,0.1,0.5,0.2,0.5,0L142,161l0.2,0c-0.1-0.1-0.3-0.2-0.5-0.1c-0.5-1.8,0.6-3.7,0.5-5.5c0.2-0.4,0-1-0.1-1.5
		c0.7-1.4,1.3-2.6,0.8-4C142.8,149.9,144.2,150.1,144.6,150.6L144.6,150.6z"/>
	<path class="st0" d="M144.2,212c0.3,0,0.4-0.2,0.8-0.1C144.7,212,144.5,212,144.2,212z"/>
	<path class="st0" d="M147,207.7c-0.1,0,0.1-0.1,0.2-0.1c0,0,0.2,0.1,0.1,0.1C147.3,207.7,147.2,207.7,147,207.7L147,207.7z"/>
	<path class="st0" d="M147.2,206.6c0.2,0,0.4,0.2,0.5,0.4L147.2,206.6z"/>
	<path class="st0" d="M148.2,205.6c0.2-0.1,0.3-0.1,0.3,0.1C148.4,205.7,148.3,205.6,148.2,205.6z"/>
	<path class="st0" d="M147.7,205.5c0-0.1,0.1-0.1,0.3-0.2C147.7,205.4,148.1,205.6,147.7,205.5z"/>
	<path class="st0" d="M148.4,203.3c0,0-0.2-0.2,0-0.2C148.2,203.2,148.7,203.4,148.4,203.3z"/>
	<path class="st0" d="M148,202.3C148,202.3,148.1,202.2,148,202.3c0.1-0.1,0.3-0.1,0.3,0L148,202.3z"/>
	<polygon class="st0" points="147,183.5 147.1,183.6 146.9,183.6 	"/>
	<path class="st0" d="M147,175.3c-0.2-0.1,0.2-0.1,0.3-0.1C147.3,175.3,147,175.1,147,175.3z"/>
	<polygon class="st0" points="145.8,170.9 145.8,170.9 145.3,170.9 	"/>
	<path class="st0" d="M119.3,154.6c-0.1,0.3,0.4,0.1,0.1,0.2C119.2,154.7,119.1,154.5,119.3,154.6z"/>
	<path class="st0" d="M170.5,154.2c-1.5,0.1-1.1-1.5-2.3-1.7c-0.1,0,0.6-0.4,0.3-0.5c-1.3,0-1.7-1.5-1.8-2.7l0.2-0.1
		c0-0.2-0.7,0-0.8-0.2c0.1-0.1,0.2-0.1,0.3-0.2c-0.3,0.2-0.4-0.2-0.7,0c0.1-0.2,0.3-0.4,0.4-0.6l-0.4,0.2c-1,0.5-0.5-0.6-1.2-0.6
		c0.1,0,0.2-0.1,0.2-0.2c-1-0.1-1.5-0.9-2.3-1.3c0.1-0.1,0.4-0.3,0.5-0.4c-0.4,0.3-0.6,0.2-0.8,0.1c0.3-0.4-0.6,0-0.6-0.3l0.1-0.1
		c-0.5,0.2,0-0.4-0.5-0.1l0.2-0.4c-0.5,0.4,0-0.5-0.3-0.3l-0.1,0.1c-0.2,0,0-0.3-0.2-0.3l0-0.1c-0.4-0.1-0.2-0.5-0.6-0.1
		c0.2-0.4,0.4,0.1,0.7-0.5c-1.2-0.3-1.9-1.1-2.7-1.9c0-0.2,0-0.3,0.2-0.5c-0.2,0-0.4-0.2-0.6,0c0,0,0.1-0.2,0.1-0.3
		c0-0.3-0.5,0.3-0.5,0c0.2,0,0.3-0.2,0.4-0.3c-0.4,0.2-0.5,0-0.8,0c0.1,0,0.2,0,0.3-0.2c-0.5,0.2-0.3-0.4-0.6-0.3l0.3-0.2
		c0-0.5-0.5,0.4-0.6,0.1c0.1,0,0.2-0.1,0.3-0.2c-0.6,0.3-0.8-0.2-1.1-0.2c0,0,0.1-0.1,0.1-0.1c-0.3-0.1-0.4-0.5-0.8-0.5
		c0-0.2,0.5-0.6,0.2-0.7c-0.4,0.5-0.6-0.1-0.9,0.5c-0.1-0.2-0.3-0.7-0.6-0.6c0.2-0.1,0.4-0.7,0.6-0.6l0.1-0.4
		c0.2-0.2,0.1,0.2,0.2-0.1c-0.1,0-0.5,0-0.5-0.2c-0.4,0.2-1,0.6-1.3,0.5c0.3-0.1,0.3-0.6,0.5-0.6l-1.1,0.7c-0.1,0,0.3-0.4,0-0.4
		c-0.1,0.1-0.2,0.2-0.3,0.3c0-0.1-0.5-0.1-0.1-0.7c0.1-0.2,0.2,0,0.2-0.2c-0.2-0.1-0.3,0.1-0.5,0l0-0.1c-0.1-0.1-0.5,0-0.5,0.4
		c0.1,0.1,0.2-0.3,0.2-0.1c-0.3,0.2-0.5,0.2-0.7,0.1c0.1,0,0.2-0.2,0.3-0.3c-0.5,0.2-0.8,0.2-1.2,0.2c-0.2,0.2,0.4-0.4,0.3-0.2
		c-0.1-0.6-1,0.1-0.9-0.6c0.1,0-0.2,0.4-0.2,0.3c-0.1-0.1,0.1-0.5-0.1-0.4c0.1-0.2-0.2,0-0.3,0c-0.2,0.1,0-0.1,0.1-0.1
		c-0.3,0.1-1,0.1-1.2-0.4c-0.1,0.1-0.5,0.4-0.6,0.4l0.2-0.3c0-0.2-0.3-0.1-0.1-0.4c-0.4,0.3,0.8,0,0.4,0.2c0.1-0.3-0.6,0.4-0.3-0.1
		c-0.2-0.1-0.5,0.2-0.5-0.2c0,0.1,0.4-0.4,0.2-0.5c-0.2-0.1-0.2,0.1-0.4,0.2c0,0-0.1,0.1-0.1,0.1c-0.2,0.3-0.1-0.1-0.2,0.3
		c0.1-0.3-0.2,0.1,0-0.5l0.2-0.5c-0.1,0-0.2,0.5-0.3,0.6c0,0,0-0.1,0-0.2c-0.2,0.8-0.1-0.1-0.3,0.5c0-0.2-0.1-0.2-0.2-0.2
		c-0.1,0-0.1,0-0.2-0.3c-0.1,0.3-0.1,0.6-0.2,0.5c0-0.1,0-0.1,0-0.3c-0.1-0.2-0.1,0-0.1,0.2c0-0.1-0.2-0.4-0.5-0.6
		c0,0.3,0.2,0.6,0.3,0.8c-0.4-0.6-0.2,0.6-0.6,0.1c0-0.1,0.1-0.4-0.2-0.5c-0.5-0.6,0,0.6-0.4,0.4l0.3,0.5c-0.3-0.3-0.2,0.5-0.4-0.1
		c0,0.2-0.4,0,0,0.5c-0.6-0.2-0.7,0.8-1.5,0c0,0.1-0.2,0.1,0,0.4c0.3,0.2,0-0.3,0.2-0.1c0,0,0,0.2,0.1,0.3c-0.2,0-0.3,0-0.5-0.5
		c-0.5-0.1,0.3,1-0.2,1c-0.1-0.2-0.2-0.3-0.3-0.2l0.1,0.5c-0.2,0-0.4-0.4-0.7-0.7c-0.1,0.1-0.2,0.2-0.1,0.5l-0.4-0.4
		c0.3,0.2,0,0.3,0.1,0.4v-0.1c-0.1-0.1-0.2,0-0.2,0.1c0.2,0.2,0.3,0.2,0.5,0.2c0,0.2-0.1,0.2,0,0.4c-0.2-0.4-0.3-0.1-0.5-0.1
		c-0.2,0,0.1,0.4,0.1,0.4c-0.1-0.2-0.2,0.1-0.3-0.2c0-0.1,0.2,0.1,0.1-0.1c-0.2-0.1-0.4-0.4-0.3-0.1c0,0.2,0.5,0.6,0.2,0.6
		c0-0.1-0.1-0.3-0.1-0.4l-0.3,0l0.2,0.3c-0.1-0.1-0.1-0.1-0.1-0.1c0.2,0.4-0.2,0.3,0,0.7c-0.1,0.1-0.3-0.1-0.5,0v0
		c-0.2-0.1-0.3,0.1-0.2,0.4l0-0.1c-0.1,0-0.2,0.2-0.1,0.4c-0.3-0.1-0.9-1.1-0.8-0.6c-0.1,0.1,0.2,0.7,0.4,0.9
		c-0.4,0-0.3,0.7-0.9,0.4c0.1,0.1,0.1,0.2,0.1,0.3c-0.5,0.2-0.5,1-1.3,0.6c0-0.2-0.2-0.3-0.4-0.5c0.1,0.3-0.3-0.2,0,0.3
		c0.2,0.2,0.3,0.4,0.5,0.4c-0.1,0.3-0.4,0.6-0.8,0.5c0.2,0.1,0.2,0.2,0.2,0.3c-0.3-0.4-0.5-0.4-0.5-0.1l0.2,0.3l-0.3-0.2
		c0,0.1,0.4,0.6,0.1,0.4c-0.1-0.1-0.2-0.2-0.3-0.2c0,0.3,0.2,0.8-0.1,0.7l-0.4-0.3c0,0.1,0.1,0.4,0.3,0.4c-0.4,0-0.6,0.1-0.9-0.2
		c0.3,1.1-0.2,1.6-0.7,2l-0.2-0.2c-0.3-0.1,0.2,0.4,0,0.3c-0.1-0.2-0.4-0.3-0.5-0.6c-0.3,0,0.1,0.5,0,0.7c0.2,0.2,0-0.2,0.2,0.1
		c0.1,0.1-0.4,0-0.1,0.4c-0.2-0.1-0.4-0.4-0.5-0.5l0.1,0.3c-0.5-0.3-0.4-1-1-1.4l0,0.1c-0.5-0.3-0.1-0.7-0.5-0.6
		c0.1,0.3,0.5,0.9,0.7,0.9c-0.1,0.3,0.7,0.9,0.5,1.1c-0.3-0.1,0.1-0.2-0.2-0.5c-0.4-0.2-0.1,0.4-0.3,0.4c0.2,0,0.5,0.5,0.5,0.6
		c-0.3,0-0.2-0.4-0.5-0.3c0.2,0.2,0.2,0.5,0.4,0.5c0.4,0.5-0.3,0,0,0.5c-0.4-0.3-0.6-0.9-0.9-0.9c0.3,0.3,0.2,0.6,0.7,1
		c-0.2,0-0.4-0.2-0.5-0.5c-0.3-0.1,0.3,0.8-0.3,0.2l0.3,0.4c-0.1-0.1-0.3-0.1-0.5-0.2c-0.1,0.1,0.1,0.7-0.3,0.2
		c0,0.1-0.2,0.3,0.2,0.5c0.3,0.1-0.1-0.4,0.4,0c-0.5-0.3-0.1,0.2-0.1,0.4l-0.2-0.2c0,0.1-0.1,0.2,0.1,0.4c-0.1-0.1-0.2-0.2-0.3-0.2
		l0.2,0.3c0,0.3-0.5-0.4-0.6-0.2l-0.1-0.3c0,0.1-0.3-0.1-0.3,0c0.2,0.3,0.5,0.6,0.7,0.9c0,0.2-0.3-0.2-0.2,0.1l-0.2-0.4
		c-0.1-0.1-0.5-0.3-0.6-0.2c0,0.2,0.3,0.7,0.5,0.7c-0.1,0.1-0.3,0-0.5-0.2c0,0.2,0.3,0.2,0.3,0.5c-0.2-0.1-0.6-0.2-1-0.3l-0.3-0.5
		l-0.1,0.1c-0.2-0.5-0.3-0.2-0.6-0.6c-0.1,0-0.1,0.2,0,0.4c0.8,0.4,0.6,1,1.2,1.4c-0.1,0.4-1.5-1.1-0.9,0c0.2,0.1,0.5,0.6,0.5,0.3
		c-0.2,0.1,0.5,0.6,0.1,0.6c-0.1-0.3-0.7-0.4-0.8-0.9c0.2,0.2,0.2,0,0.2-0.1c-0.3-0.1-0.5-0.5-0.7-0.4c0,0.1-0.2,0.3,0.2,0.5
		c0.3,0.3,0.1-0.2,0.4,0.2c-0.1,0.3-0.6-0.1-0.1,0.5c0.1-0.2,0.4,0.1,0.6,0.3v0.3l-0.2-0.2c-0.3,0.1,0.3,0.4,0.1,0.6l-0.5-0.3
		c-0.3-0.4,0.4-0.2-0.2-0.7c-0.2,0.1,0.1,0.4-0.2,0.4c0-0.1,0-0.1,0-0.2c-0.1,0-0.9-0.6-0.6,0c0.1,0.3,0.2,0.2,0.4,0.4
		c-0.1,0.3,0,0.6-0.1,0.7c-0.4-0.4-0.3,0.2-0.6-0.3c0.3,0.1,0.6-0.2,0.3-0.7c-0.6-0.4,0.2-0.1-0.2-0.6c-0.2,0.2-0.7-0.3-1-0.5
		c-0.1,0,0,0.2,0,0.3c0.3,0.3,0.3,0.2,0.7,0.5c-0.3,0.1-0.3,0.5-0.1,0.9c-0.2-0.1-0.5-0.4-0.5-0.5c-0.1,0.3-0.4,0.6-0.7,0.7
		c0.6,0.3-0.1,0.4,0.4,0.6c0.2,0,0.7,0.2,0.8,0.4c-0.1,0-0.2-0.2-0.4-0.2c0.2,0.3-0.6-0.2-0.2,0.3c0-0.4-0.6-0.6-1-0.9
		c0.1,0.4-0.3-0.2-0.4-0.1c0.1,0.4,0.1,0.7,0,1c-0.6-0.1-0.5,0.6-0.7,0.8c-0.3,0-0.7-0.5-0.9-0.4c-0.1,0.1,0.6,0.3,0.2,0.3l-0.1-0.1
		c0.1,0.1-0.6,0.1,0,0.7l-0.5-0.5c-0.1,0,0,0.1,0,0.2c-0.2-0.1-0.4-0.2-0.4-0.3c-0.5-0.1-0.2,0.3-0.3,0.5l0.4,0.1
		c0,0.4-0.4,0.4-0.4,0.7l-0.3-0.2l0.1,0.3c-0.3-0.2-0.5-0.2-0.4,0l-0.5-0.9c0.3,0,0.3,0.4,0.6,0.5c0.3,0.1,0.4-0.2,0.1-0.4
		c-0.1,0.1,0,0.1,0,0.3c-0.4-0.3-0.3-0.4-0.5-0.7c0,0.1-0.2,0-0.1,0.1c-0.1-0.2-0.1-0.4,0-0.5c0.1,0.2,0.3,0.1,0.4,0.3
		c-0.4-0.3-0.4-0.5-0.1-0.6c0.5,0.2,0-0.5,0.3-0.7c0.3,0.4,0.5,0.7,0.5,1c0.3,0,0.1-0.2,0.4-0.1c-0.2-0.3-0.6-0.6-0.6-1l0.3,0.2
		c0-0.3-0.4-0.6-0.2-0.7c0.4-0.2,0.7-0.6,0.9-0.8l0.3,0.2c-0.4-0.6,0.2-0.6,0.1-1c0.5-0.1,0.4-0.9,1-0.7c0.3-0.7,0.5-1.4,1.2-1.9
		l0.3,0.4c-0.2-0.4,0.3,0.1,0.3,0c-0.4-0.1-0.2-0.5-0.4-0.8c0.5,0,0.5-0.6,0.5-1.1l0.3,0.2c-0.2-0.7,0.4-0.5,0.8-0.8
		c0.1,0.1,0.4,0.2,0.5,0.1c-0.2-0.5-0.1-0.6-0.2-1c0.2-0.2,0.5-0.3,0.8-0.3c0.1-1.1,1-1.4,1.4-2.4l0.3,0.2c0-1.2,1.3-1.4,1.6-2.2
		l0.4,0.6c0.3,0,0.3-0.5-0.1-0.8c0.3,0,0.2-0.6,0.7-0.3c0.3-0.1,0-0.4,0.1-0.6c0.5-0.1,0.6-0.3,0.9-0.6l-0.1,0
		c0.1,0.1,0.2,0.4,0.3,0.3c0-0.2,0.6-0.2-0.1-0.8c0.7,0,0.6-1,1.4-0.8c-0.2-0.1-0.1-0.3-0.2-0.4c0.3-0.3,1-0.2,1-0.7
		c0.1,0,0.1,0.4,0.3,0.3c0-0.1-0.2-0.2-0.2-0.4c0.3-0.8,1.4-0.5,1.8-0.9c0.7-1,1.8-1.5,2.7-2.1l0.1,0.1c0-0.7,1,0.1,0.8-0.9
		c0.2,0.1,0.3-0.1,0.4,0.2c0-0.5,0.9,0,1-0.7c0,0,0,0-0.1,0.1c0.1,0,0.3,0,0.4,0c0.2-0.1,0.3-0.1,0.4-0.2c0.3-0.2,0.6-0.4,0.9-0.3
		c0,0.1-0.2,0.2-0.1,0.4c0.3,0.2,0.5-1,0.7-0.2c0.1-0.1,0-0.5,0-0.4c0.7-0.4,1.4,0.1,2.2,0.3c0.4,0.1,0.8,0.2,1.2,0.3
		c0.4,0.1,0.6,0.1,0.8,0.2c0.4,0.8-0.6,1.2,0.2,1c0,0.2,0.2-0.2,0.1-0.1c0.3-0.1-0.1,0.9,0.2,0.6c0.2-0.5,0.2-0.2,0.4-0.4
		c0.2,0.5,0.1,0.9,0.6,0.8l-0.2,0.2c0.7-0.4,0.9,0.2,1.7-0.3c2,1.1,4,2,5.8,3.4c1.6,1.5,3.4,2.6,4.7,4.4c-0.1,0.8,0,0.8,0.5,1
		c-0.1,0.1-0.1,0.1-0.2,0.1c0.4-0.4,0.3,0.2,0.7-0.1c0.5,0.6,1.2,1,1.7,1.6c-0.1,0-0.5,0.2-0.4,0.3l0.4-0.1l-0.1,0.1
		c0.1,0,0.4-0.1,0.5-0.3c1.8,1.2,2.4,3.5,3.8,4.9c0.1,0.5,0.7,0.9,1.2,1.3c0.4,1.7,0.8,3.1,2.1,4.1
		C172.3,153.9,171.1,154.5,170.5,154.2L170.5,154.2z"/>
	<path class="st0" d="M119.4,154.3c0.3,0.1,0.5,0.1,0.7,0.4C119.9,154.5,119.6,154.5,119.4,154.3z"/>
	<path class="st0" d="M124.5,152.3c-0.1-0.1,0.1,0,0.2,0c0,0.1,0.1,0.2,0,0.2C124.7,152.5,124.6,152.4,124.5,152.3z"/>
	<path class="st0" d="M125.4,151.5c0.2,0.2,0.2,0.5,0.1,0.6L125.4,151.5z"/>
	<path class="st0" d="M126.9,151.4c0.2,0.1,0.3,0.2,0.2,0.2C127,151.6,126.9,151.5,126.9,151.4z"/>
	<path class="st0" d="M126.5,151c0.1-0.1,0.2,0,0.3,0C126.7,150.9,126.8,151.3,126.5,151z"/>
	<path class="st0" d="M128.6,149.7c0,0,0-0.3,0.2-0.1C128.6,149.5,128.8,150,128.6,149.7z"/>
	<path class="st0" d="M129.1,148.7C129.1,148.7,129.1,148.7,129.1,148.7c0.2,0,0.3,0.1,0.2,0.2L129.1,148.7L129.1,148.7z"/>
	<polygon class="st0" points="143.7,135.5 143.7,135.7 143.6,135.5 	"/>
	<path class="st0" d="M149.8,137.4c0.2-0.1-0.1,0.2-0.1,0.3C149.6,137.6,149.9,137.4,149.8,137.4z"/>
	<polygon class="st0" points="154.3,139.2 154.3,139.2 154.6,138.8 	"/>
	<path class="st0" d="M98,76.5c-0.1-0.5-0.4,0.3-0.2-0.4C98,76.2,98.2,76.3,98,76.5z"/>
	<path class="st0" d="M83.4,53c-1.1,0.1-2-0.3-2.9-0.8c-0.9-0.5-1.9-0.9-2.9-0.8c-0.2,0,0.3-0.7-0.3-0.6c-2,0.4-4.7-0.6-7-1.4
		l0.2-0.2c-0.4-0.1-1,0.5-1.4,0.4c0-0.1,0.2-0.2,0-0.4c-0.1,0.4-0.8,0.2-1,0.5c-0.2-0.1-0.2-0.5-0.4-0.6l-0.2,0.5
		c-0.6,1.1-1.8,0.1-2.7,0.8c0-0.1,0.1-0.2,0-0.3c-0.7,0.4-1.6,0.8-2.4,1.1c-0.9,0.3-1.7,0.7-2.5,1.1c0-0.2,0-0.5-0.2-0.6
		c0.1,0.5-0.4,0.8-0.8,1c-0.4-0.4-0.5,0.8-1.1,0.7v-0.1c-0.1,0.6-0.7,0-0.7,0.7c-0.1-0.1-0.3-0.2-0.4-0.2c0.2,0.7-0.7,0-0.8,0.5
		l0.1,0.1c-0.2,0.3-0.5,0.1-0.7,0.4l-0.1,0c-0.5,0.5-1,0.4-0.7,0.9c-0.4-0.2,0.4-0.5-0.2-0.8c-1.5,1.8-3.4,3.1-4.9,4.9
		c-0.3,0-0.5,0.1-0.7,0c-0.1,0.2-0.5,0.7-0.4,1.1c0-0.1-0.3,0-0.4,0c-0.4,0.2,0.2,0.7-0.3,0.9c0-0.2-0.1-0.4-0.3-0.5
		c0.1,0.6-0.3,0.9-0.4,1.4c0-0.1,0-0.2-0.2-0.3c0.1,0.7-0.6,0.7-0.5,1.3l-0.2-0.3c-0.7,0.4,0.5,0.5-0.1,0.9c0-0.2-0.1-0.2-0.2-0.3
		c0.2,0.8-0.4,1.5-0.5,2.1c0,0-0.1-0.1-0.1-0.1c-0.2,0.6-0.7,1.1-0.7,1.8c-0.2,0.2-0.7-0.4-0.8,0.3c0.6,0.2-0.1,1.1,0.7,1
		c-0.3,0.5-0.7,1.3-0.6,1.7c-0.2-0.3-0.8,0.1-0.7-0.4l-0.5,0.2c-0.2-0.1,0.2-0.3-0.2-0.3c0,0.2,0,1-0.1,1.2c0.2,0.5,0.9,1,0.9,1.7
		c-0.2-0.4-0.7,0.1-0.8-0.2c0.3,0.4,0.7,0.8,1,1.1c0,0.2-0.5,0-0.4,0.3c0.2,0,0.2,0.2,0.4,0.3c-0.1,0.1,0.1,1-0.5,1
		c-0.2,0.1-0.1-0.4-0.3-0.1c0,0.4,0.2,0.5,0.2,0.9h-0.1c-0.1,0.3,0.2,0.8,0.6,0.5c0-0.2-0.4,0.1-0.2-0.2c0.4,0.2,0.4,0.7,0.4,1.1
		c-0.1-0.1-0.3-0.1-0.4-0.2c0.5,0.6,0.7,1.1,0.9,1.7c0.3,0-0.5-0.2-0.4-0.3c-0.2,0.4,0,0.8,0.1,1.2c0.2,0.4,0.3,0.7,0.1,1.1
		c-0.1-0.1,0.4-0.1,0.3-0.1c0,0.4-0.4,0.4-0.2,0.6c-0.2,0.1,0.1,0.3,0.2,0.5c0.2,0.1-0.1,0.1-0.2-0.1c0.2,0.3,1,1.6,0.8,2.5
		c0.2-0.1,0.7,0.3,0.8,0.5l-0.4,0c-0.2,0.2,0.2,0.6,0,0.7c0.6,0.2-0.9-1.4-0.4-0.9c-0.3,0.2,0.8,0.5,0.3,0.6c0.2,0.4,0.7,0.5,0.5,1
		c0-0.1-0.6-0.1-0.5,0.2c0.2,0.5,0.2,0.1,0.5,0.5l0.2,0.2c0.3-0.1,0.2,0.5,0.5,0.1c-0.2,0.2,0.5,0.6-0.1,0.8l-0.5,0.1
		c0.1,0.2,0.6,0.1,0.9,0.2c0,0-0.1,0.1-0.2,0.2c0.7-0.3,0.2,0.5,0.8,0.5c0,0.5,0.6,1.1,0.3,1.5c0.4,0.2,0.8,0.3,0.9,0.8
		c-0.1,0-0.2-0.1-0.3,0c0,0.4,0.2,0.3,0.4,0.4c-0.1,0,0,0.7-0.1,1.1c0.4,0.2,0.7-0.2,0.9-0.3c-0.4,0.7,1,0.6,0.8,1.3
		c-0.2,0-0.7-0.2-0.6,0.2c-0.3,0.7,0.9,0.2,1,0.8l0.4-0.5c-0.1,0.4,0.8,0.4,0.3,0.7c0.3,0,0.3,0.6,0.7,0.1c0.3,1,1.8,1.2,1.5,2.4
		c0.2,0,0.4,0.3,0.5,0c0-0.4-0.4,0-0.3-0.2c0.1,0.1,0.2-0.1,0.3-0.1c0.1,0.3,0.3,0.4-0.2,0.7c0.3,0.7,1.1-0.4,1.6,0.2
		c-0.2,0.2-0.2,0.3,0,0.4l0.6-0.1c0.4,0.3,0,0.6-0.3,1c0.3,0.1,0.6,0.3,0.8,0.1l0,0.6c0-0.5,0.3-0.1,0.5-0.1l-0.2,0
		c0,0.2,0.3,0.3,0.5,0.3c0.1-0.2-0.1-0.5-0.2-0.7c0.2-0.1,0.4,0.1,0.6,0c-0.2,0.3,0.3,0.5,0.4,0.6c0.2,0.2,0.4-0.2,0.5-0.2
		c-0.1,0.2,0.3,0.2,0,0.4c-0.1,0-0.1-0.3-0.3-0.2c0.1,0.2-0.1,0.5,0.3,0.4c0.3-0.1,0.3-0.8,0.6-0.3c-0.2,0-0.2,0.2-0.4,0.3l0.3,0.4
		l0.2-0.3c0,0.1,0,0.1,0,0.2c0.3-0.3,0.7,0.2,1-0.2c0.2,0,0.3,0.4,0.5,0.5l0,0c0.2,0.3,0.6,0.3,0.8,0.1l0,0.1c0.1,0.1,0.5,0.1,0.7,0
		c0.3,0.4-0.3,1.4,0.2,1c0.4,0.1,0.8-0.5,0.7-0.8c0.6,0.4,1.4,0,1.9,0.7c0.1-0.1,0.1-0.2,0.3-0.3c0.5,0.1,1,0.1,1.5,0.1
		c0.5,0,0.9,0.1,1.3,0.5c-0.3,0.1,0,0.4,0,0.6c0.3-0.3,0.3,0.4,0.4-0.2c0-0.3,0-0.5-0.2-0.6c0.6-0.2,1.5-0.1,1.8,0.2
		c-0.2-0.1,0-0.3,0.1-0.4c0,0.5,0.4,0.6,0.7,0.4l0-0.3l0.2,0.3c0.1-0.1,0.1-0.7,0.4-0.4c0,0.1,0,0.2,0.1,0.3
		c0.3-0.3,0.7-0.8,1.1-0.5l0.3,0.4c0.2-0.1,0.4-0.4,0.1-0.5c0.7,0.2,1,0.2,1.3,0.5c0.5-0.5,1-1,1.6-1.3c0.3-0.1,0.6-0.2,0.9-0.3
		c0.3-0.1,0.6-0.2,0.9-0.3l0,0.2c0.4,0.1,0-0.5,0.3-0.4c0,0.3,0.4,0.4,0.3,0.8c0.5,0.1,0.4-0.6,0.7-0.8c-0.1-0.3-0.2,0.3-0.2-0.1
		c0-0.1,0.7,0,0.6-0.5c0.2,0.1,0.2,0.5,0.3,0.7l0.2-0.3c0.6,0.4-0.3,1.3,0.3,1.8l0.2-0.2c0.5,0.4-0.5,0.9,0.3,0.7
		c0.2-0.4,0.1-1.1-0.2-1.2c0.5-0.4-0.2-1.2,0.4-1.4c0.3,0.2-0.4,0.3-0.2,0.6c0.5,0.2,0.5-0.5,0.8-0.5c-0.4,0-0.3-0.6-0.2-0.7
		c0.4,0.1,0,0.5,0.5,0.3c-0.1-0.3,0.2-0.7-0.2-0.7c-0.2-0.6,0.5-0.1,0.5-0.6c0.4,0.3,0.1,1.1,0.7,1.1c-0.3-0.3,0.2-0.8-0.3-1.2
		c0.2,0,0.4,0.3,0.5,0.6c0.4,0.1,0.2-1,0.7-0.4l-0.2-0.4c0.2,0.1,0.3,0.1,0.6,0.2c0.2-0.1,0.3-1,0.7-0.4c0-0.1,0.5-0.4,0-0.7
		c-0.5,0-0.1,0.5-0.7,0.1c0.5,0.3,0.4-0.4,0.4-0.6l0.2,0.2c0-0.1,0.3-0.3,0.2-0.5c0,0.2,0.2,0.3,0.3,0.3l-0.2-0.4
		c0.2-0.5,0.5,0.5,0.8,0l-0.1,0.5c0-0.1,0.4,0.1,0.5-0.2c-0.2-0.3-0.3-0.8-0.5-1c0.1-0.3,0.4,0.2,0.3-0.2l0,0.5c0,0.1,0.6,0.3,0.8,0
		c0.1-0.2,0-0.9-0.4-0.8c0.1-0.1,0.5-0.1,0.5,0.1c0.2-0.4-0.3-0.2-0.2-0.6c0.3,0.1,0.8,0,1.2,0l0.2,0.7l0.2-0.2
		c0.1,0.6,0.4,0.1,0.6,0.6c0.2-0.1,0.2-0.4,0.2-0.6c-1-0.2-0.4-1.2-1.1-1.5c0.3-0.6,1.7,0.9,1.2-0.5c-0.2,0-0.5-0.6-0.5-0.2
		c0.3-0.3-0.4-0.7,0.1-0.9c0,0.5,0.8,0.1,0.9,0.8c-0.2-0.2-0.3,0.1-0.3,0.2c0.3,0,0.6,0.5,0.8,0.1c0.1-0.3,0.3-0.6,0-0.8
		c-0.3-0.2-0.2,0.4-0.5,0c0.2-0.5,0.8-0.2,0.3-0.8c-0.2,0.3-0.6,0.1-0.8-0.1l0.1-0.4l0.2,0.2c0.5-0.4-0.3-0.4,0.1-0.9l0.6,0.1
		c0.3,0.4-0.6,0.6,0.1,1c0.2-0.3,0-0.6,0.3-0.9c0,0.1,0,0.2,0,0.3c0.1-0.1,1,0.3,0.8-0.5c0-0.4-0.2-0.2-0.4-0.4
		c0.2-0.6,0.1-0.9,0.2-1.3c0.5,0.3,0.4-0.6,0.7,0c-0.4,0-0.8,0.8-0.5,1.3c0.7,0.1-0.3,0.4,0.2,0.9c0.3-0.4,0.8-0.1,1.3,0.1
		c0.1-0.1,0-0.3,0-0.4c-0.3-0.3-0.4-0.1-0.8-0.3c0.4-0.4,0.5-1.1,0.2-1.5c0.3-0.1,0.6,0.1,0.5,0.4c0.2-0.7,0.6-1.3,1-1.9
		c-0.8,0.1,0.1-0.8-0.5-0.7c-0.3,0.3-0.8,0.4-1,0.1c0.1-0.2,0.3,0.1,0.4,0.1c-0.2-0.4,0.7-0.2,0.2-0.6c0,0.7,0.7,0.4,1.2,0.7
		c-0.1-0.5,0.3,0.1,0.5-0.3c-0.1-0.5-0.1-1.1-0.1-1.7c0.6-0.5,0.4-1.6,0.5-2.1c0.3-0.2,0.9,0.1,1-0.2c0-0.4-0.7,0.2-0.3-0.4l0.1,0.1
		c-0.1-0.2,0.6-1-0.3-1.3l0.6,0.3c0.1-0.1-0.1-0.2-0.1-0.3c0.2,0,0.4-0.1,0.5,0.1c0.5-0.3,0.1-0.8,0.1-1.2l-0.4,0.2
		c-0.3-0.7,0.1-1.1,0-1.8l0.4,0l-0.2-0.4c0.3,0.1,0.6-0.2,0.3-0.5l0.9,1.1c-0.2,0.3-0.4-0.3-0.8-0.2c-0.3,0.1-0.3,0.8,0.1,0.9
		c0-0.2,0-0.2-0.2-0.4c0.5,0,0.5,0.3,0.8,0.5c0-0.1,0.2-0.3,0-0.3c0.2,0.3,0.3,0.5,0.3,0.9c-0.2-0.3-0.3,0.1-0.5,0
		c0.5,0.1,0.6,0.5,0.3,1c-0.6,0.3,0.2,1,0,1.6c-0.4-0.3-0.7-0.7-0.9-1.1c-0.3,0.3,0,0.4-0.3,0.7c0.3,0.2,0.8,0.5,0.9,1l-0.3,0
		c0.1,0.5,0.5,0.6,0.3,1.1c-0.4,0.9-0.6,1.9-1,2.5l-0.3-0.1c0.5,0.6-0.2,1.4-0.1,2c-0.7,0.7-0.6,2-1.3,2.2c-0.3,0.8-0.6,1.5-1,2.2
		c-0.3,0.7-0.8,1.4-1.4,2l-0.2-0.5c0.1,0.5-0.3,0-0.5,0.3c0.5,0,0.2,0.7,0.2,1c-0.8,0.3-1.2,1.3-1.4,2.1L90.3,98
		c0,1-1.1,1.1-1.8,1.6c-0.2,0-0.5-0.2-0.7,0c0,0.7-0.2,0.8-0.6,1.5c-0.4,0.3-1.1,0.7-1.7,0.8c-0.6,0.8-1.4,1.4-2.3,1.9
		c-0.9,0.4-1.8,0.9-2.6,1.5l-0.3-0.3c-0.8,0.7-1.8,1.2-2.8,1.4c-1,0.2-2,0.4-2.8,0.7l0-0.7c-0.5-0.1-1.1,0.4-1,0.8
		c-0.5-0.1-1.3,0.5-1.7,0c-0.5-0.1-0.6,0.4-1.1,0.5c-1.1-0.2-1.5-0.1-2.5,0l0.2,0.1c0.1-0.1,0.1-0.4-0.1-0.5c-0.4,0.2-1.4-0.2-1,0.6
		c-1.1-0.5-2.6,0.1-3.6-0.7c0,0.2-0.2,0.2-0.4,0.4c-1-0.2-1.8-0.9-2.7-0.7c-0.1-0.1,0.3-0.3,0-0.4c-0.2,0-0.1,0.3-0.4,0.3
		c-1.6-0.1-2.9-1.5-4.2-2c-1.3-0.3-2.4-1-3.5-1.6c-0.6-0.3-1-0.8-1.5-1.1c-0.5-0.4-1-0.7-1.5-1.1l0.1-0.1c-1-0.1-1-1.7-2.1-1.5
		c0-0.2-0.5-0.6-0.1-0.7c-0.8-0.2-0.9-1.6-1.9-2c0,0.1,0.1,0.1,0.2,0.1c-0.3-1-1.2-1.3-1.5-2.3c0.1,0,0.2,0.2,0.4,0.1
		c0-0.5-1-0.4-0.5-1c-0.1-0.2-0.4,0.1-0.3,0.2c-0.2-0.5-0.5-1-0.8-1.5c-0.3-0.5-0.5-1-0.8-1.5c-0.3-0.5-0.6-1-0.9-1.5
		s-0.5-1-0.8-1.5c-0.1-1.7,1.2-0.5,0.3-1.5c0.1-0.1-0.3,0-0.2,0c-0.3-0.4,0.7-1,0.2-1.2c-0.4,0.2-0.3-0.1-0.6-0.1c0-1,0.4-1.3,0-2
		h0.3c-0.8-0.8-0.7-1.8-1.5-2.5c-0.5-5-0.2-10.2,1.7-14.9c0.6-1.1,1.1-2.3,1.8-3.3l1-1.6c0.3-0.5,0.7-1,1.1-1.5
		c0.7-1,1.6-1.9,2.5-2.9c0.4-0.5,0.9-0.8,1.4-1.2c0.5-0.4,1-0.8,1.5-1.1c1.4-0.2,1.4-0.2,2.3-1.2c0,0.1,0,0.2,0.1,0.2
		c-0.2-0.5,0.7-0.5,0.6-1c1.6-0.9,3.1-1.8,4.9-2.6c-0.3,0.2-0.2,0.6,0.1,0.5l0.2-0.5l0.1,0.1c0.2-0.2,0.4-0.5,0.1-0.6
		c0.5-0.3,1.1-0.5,1.7-0.7c0.6-0.2,1.2-0.3,1.8-0.5c1.2-0.3,2.4-0.4,3.6-0.5c2.4-0.1,4.8,0.1,7.1,0.3c1.1,0.3,2.7,0.4,3.9,0.6
		c3.4,1.6,6,3.3,9.2,4.8c0,0-0.3,0.2-0.8,0.4C84.7,53.1,84.1,53.2,83.4,53L83.4,53z"/>
	<path class="st0" d="M98.1,77.2c-0.3,0.1-0.4,0.5-0.8,0.2C97.6,77.4,97.9,77.2,98.1,77.2z"/>
	<path class="st0" d="M93.7,86.5c0.1,0-0.2,0.1-0.2,0.1c0-0.1-0.2-0.3,0-0.3C93.5,86.3,93.6,86.4,93.7,86.5L93.7,86.5z"/>
	<path class="st0" d="M92.6,88.6c-0.2-0.1-0.2-0.7-0.1-1L92.6,88.6z"/>
	<path class="st0" d="M90.7,90c-0.3,0-0.3,0-0.2-0.3C90.6,89.8,90.6,89.9,90.7,90z"/>
	<path class="st0" d="M91.1,90.5c-0.1,0.2-0.3,0.2-0.4,0.2C90.8,90.7,90.8,90.2,91.1,90.5z"/>
	<path class="st0" d="M87.7,93.8c-0.1,0.1-0.1,0.4-0.3,0.3C87.6,94.1,87.5,93.5,87.7,93.8z"/>
	<path class="st0" d="M86.5,95.6c-0.1,0-0.1,0-0.1,0.1c-0.2,0-0.2-0.2-0.1-0.3L86.5,95.6z"/>
	<polygon class="st0" points="50.3,94.5 50.5,94.6 50.3,94.8 	"/>
	<path class="st0" d="M43.9,78.1c-0.2-0.2,0.2-0.2,0.2-0.2C44.2,78.1,43.8,77.8,43.9,78.1z"/>
	<polygon class="st0" points="44.3,68.1 44.3,68.2 43.9,68 	"/>
	<path class="st0" d="M90.5,80.7c0.1-0.1,0-0.4,0-0.2C90.5,80.7,90.5,80.9,90.5,80.7z"/>
	<path class="st0" d="M69.8,80.4c0.2-1.3,0.6,0,0.8-0.8c0,0,0,0.7,0.1,0.5c0.3-1,0.7-0.4,1,0.4l0,0.2c0.1,0.1,0.1-0.5,0.2-0.4
		c0,0.1,0,0.2,0,0.4c0-0.4,0.1-0.2,0.1-0.5c0,0.2,0,0.5,0.1,0.6l0-0.5c0.1-1.1,0.2,0.1,0.4-0.5c0,0.1,0,0.2,0,0.3
		c0.2-0.6,0.5-0.5,0.8-0.8c0,0.2,0,0.5,0,0.6c0-0.5,0.1-0.6,0.2-0.7c0,0.5,0.1-0.5,0.2-0.2v0.1c0-0.5,0.1,0.3,0.1-0.3l0,0.4
		c0-0.7,0.1,0.4,0.1,0v-0.1c0-0.2,0.1,0.2,0.1,0.1v0.1c0.1-0.2,0.2,0.2,0.2-0.3c0,0.4-0.1,0.2,0,0.8c0.3-0.5,0.7-0.4,1-0.5
		c0,0.2,0.1,0.3,0.1,0.5c0-0.1,0.1-0.1,0.2-0.4c0,0,0,0.3,0,0.3c0.1,0.2,0.1-0.6,0.1-0.4c0,0.1,0,0.3,0,0.5c0.1-0.4,0.1-0.4,0.2-0.5
		c0,0.1,0,0.1,0,0.3c0.1-0.5,0.1,0.1,0.2-0.2l0,0.3c0.1,0.4,0-0.6,0.1-0.4c0,0.1,0,0.2,0,0.3c0.1-0.6,0.2-0.4,0.3-0.6
		c0,0,0,0.1,0,0.1c0.1-0.1,0.2,0.1,0.3-0.1c0,0.1,0,0.8,0.1,0.6c0-0.6,0.2-0.3,0.1-1c0.1,0.1,0.2,0.3,0.3,0.1c0,0.2,0,0.8,0,0.8
		l0,0.4c0,0.2,0-0.1,0,0.2c0,0,0.1-0.3,0.2-0.2c0.1-0.4,0.1-1.1,0.2-1.2c0,0.2,0,0.7,0,0.8l0.1-1.2c0,0,0,0.5,0.1,0.3
		c0-0.2,0-0.3,0-0.4c0,0.1,0.1-0.2,0.2,0.5c0,0.2-0.1,0.1,0,0.4c0.1,0,0.1-0.2,0.1-0.2v0.1c0,0.1,0.1-0.3,0.1-0.6c0,0,0,0.4,0,0.2
		c0-0.4,0.1-0.5,0.2-0.5c0,0.1,0,0.3,0,0.4c0.1-0.5,0.2-0.6,0.3-0.8c0-0.3,0,0.5,0,0.4c0.1,0.4,0.2-0.6,0.3,0c0,0,0-0.4,0-0.3
		c0.1,0,0,0.5,0.1,0.3c0,0.2,0-0.1,0.1-0.1c0-0.2,0,0.1,0,0.1c0-0.2,0.3-0.6,0.4-0.2c0-0.2,0.1-0.6,0.1-0.6V78c0,0.2,0.1,0,0.1,0.3
		c0.1-0.5-0.2,0.4-0.2,0c0,0.3,0.1-0.6,0.1-0.1c0.1,0,0.1-0.4,0.2-0.1c0-0.1,0,0.5,0,0.5c0.1-0.1,0-0.2,0.1-0.3l0-0.2
		c0-0.4,0.1,0,0-0.4c0,0.3,0.1-0.2,0.1,0.4v0.5c0,0,0-0.5,0.1-0.7c0,0,0,0.1,0,0.2c0-0.7,0.1,0.1,0.1-0.5c0.1,0.3,0.2,0,0.2,0.5
		c0.1-0.2,0.1-0.5,0.2-0.3c0,0.1,0,0.1,0,0.2c0,0.2,0,0,0.1-0.1c0,0.1,0.1,0.4,0.1,0.7c0.1-0.2,0-0.6,0-0.9c0,0.7,0.2-0.5,0.2,0.2
		c0,0.1-0.1,0.4,0,0.5c0,0.7,0.1-0.5,0.2-0.2l0-0.6c0,0.4,0.1-0.4,0.1,0.3c0-0.2,0.1,0.2,0.1-0.4c0.1,0.5,0.3-0.3,0.4,0.8
		c0-0.1,0.1,0,0.1-0.3c0-0.3,0,0.2-0.1,0c0,0,0-0.2,0-0.3c0,0.1,0.1,0.2,0,0.7c0.1,0.4,0.1-1,0.2-0.8c0,0.2,0,0.3,0,0.3l0.1-0.4
		c0.1,0.1,0,0.6,0,1c0-0.1,0.1,0,0.1-0.4l0,0.5c0-0.4,0-0.2,0-0.4l0,0.1c0,0.2,0.1,0.1,0.1,0c0-0.3,0-0.4-0.1-0.4
		c0-0.2,0-0.1,0.1-0.4c0,0.4,0.1,0.3,0.1,0.3c0,0.1,0-0.4,0-0.4c0,0.2,0.1,0,0,0.3c0,0.1,0-0.2,0,0c0,0.2,0,0.5,0.1,0.3
		c0-0.2,0-0.8,0.1-0.5c0,0.1,0,0.3,0,0.4l0.1,0.2V78c0,0.1,0,0.1,0,0.2c0-0.4,0.1-0.1,0.1-0.6c0,0,0.1,0.3,0.1,0.3v0
		c0,0.2,0.1,0.1,0.1-0.2v0.1c0,0,0.1,0,0.1-0.2c0.1,0.3,0,1.4,0.1,0.9c0.1,0,0.1-0.7,0.1-0.9c0.1,0.2,0.2-0.4,0.3,0.2
		c0-0.1,0-0.2,0-0.3c0.2,0.1,0.3-0.4,0.4,0.3c0,0.2,0,0.4,0,0.6c0-0.3,0,0.4,0.1-0.2c0-0.3,0-0.5,0-0.6c0.1-0.2,0.2-0.2,0.3,0.1
		c0-0.2,0-0.3,0-0.4c0,0.5,0.1,0.6,0.1,0.4v-0.3l0,0.3c0-0.1,0-0.7,0.1-0.4c0,0.1,0,0.3,0,0.4c0-0.3,0.1-0.7,0.2-0.4l0,0.5
		c0,0,0.1-0.3,0-0.5c0.1,0.3,0.2,0.3,0.2,0.7c0.2-1,0.4-1,0.6-1v0.2c0,0.2,0-0.4,0.1-0.3c0,0.2,0,0.5,0,0.8c0.1,0.3,0.1-0.4,0.1-0.5
		c0-0.3,0,0.2,0-0.2c0-0.1,0.1,0.2,0.1-0.2c0,0.2,0,0.5,0,0.8l0-0.2c0.1,0.6-0.1,1-0.1,1.7l0-0.1c0,0.5-0.1,0.6,0,0.8
		c0-0.2,0.1-1,0-1.2c0.1-0.1,0-1.2,0.2-1.1c0,0.3-0.1,0.1-0.1,0.5c0,0.4,0.1-0.2,0.1-0.1c0-0.2,0-0.7,0-0.8c0,0.2,0,0.5,0,0.5
		c0-0.3,0.1-0.5,0-0.7c0-0.6,0.1,0.2,0.1-0.3c0,0.5-0.1,1,0,1.3c0-0.4,0.1-0.6,0.1-1.2c0,0.1,0,0.5,0,0.7c0,0.3,0.1-0.8,0.1,0.1
		l0-0.4c0,0.1,0,0.2,0.1,0.5c0,0,0.1-0.6,0.1,0.1c0-0.1,0.1,0,0.1-0.5c-0.1-0.3-0.1,0.3-0.1-0.3c0,0.5,0.1-0.1,0.1-0.2v0.3
		c0-0.1,0.1,0,0.1-0.3c0,0.1,0,0.3,0,0.4l0-0.4c0.1-0.2,0,0.7,0.1,0.6l-0.1,0.3c0-0.1,0,0.3,0.1,0.2c0-0.4,0-0.8,0-1.1
		c0-0.2,0,0.4,0.1,0L87,76.9c0,0.1,0,0.6,0.1,0.6c0-0.1,0.1-0.6,0-0.8c0,0,0.1,0.2,0,0.5c0.1-0.1,0-0.4,0-0.6c0,0.2,0.1,0.6,0.1,0.9
		L87.4,78h0c0,0.5,0,0.4,0,0.9c0,0.1,0.1-0.1,0.1-0.2c-0.1-0.8,0.1-1.1,0.1-1.9c0.1-0.2,0.1,1.8,0.2,0.6c0-0.2,0-0.8,0-0.5
		c0.1,0.1,0-0.7,0.1-0.4c-0.1,0.3,0.1,0.8,0,1.2c0-0.2,0-0.2-0.1-0.1c0,0.3,0,0.7,0.1,0.7c0-0.1,0.1-0.1,0.1-0.5c0-0.4-0.1,0,0-0.4
		c0.1-0.1,0.1,0.5,0.1-0.2c0,0.1-0.1-0.4-0.1-0.7l0.1-0.2v0.3c0.1,0.2,0-0.5,0.1-0.4l0,0.6c0,0.5-0.1-0.2-0.1,0.6
		c0.1,0,0.1-0.4,0.1-0.2c0,0.1,0,0.1,0,0.2c0,0,0,1.1,0.1,0.5c0-0.2,0-0.3,0-0.6c0.1-0.1,0.1-0.4,0.2-0.4c0,0.6,0.1,0,0,0.6
		c0-0.3-0.2-0.3-0.2,0.2c0,0.7-0.1-0.1-0.1,0.6c0.1,0,0.1,0.7,0.1,1.1c0,0,0-0.1,0.1-0.2c0-0.4,0-0.4,0-0.8c0.1,0.1,0.2-0.1,0.2-0.5
		c0,0.2,0,0.6,0,0.6c0.1-0.1,0.2-0.1,0.3,0.1c-0.1-0.7,0.1-0.2,0.1-0.7c0-0.1-0.1-0.6-0.1-0.9c0,0,0,0.3,0,0.4c0-0.4,0.1,0.6,0.1,0
		c-0.1,0.2,0,0.8,0,1.3c0.1-0.3,0,0.4,0.1,0.4c0.1-0.3,0.2-0.5,0.2-0.6c0.1,0.5,0.2,0,0.3,0c0,0.3,0,0.9,0.1,1c0.1,0,0-0.6,0-0.4
		v0.1c0-0.1,0.2,0.4,0.2-0.5l0,0.6c0,0.1,0-0.1,0-0.2c0,0.2,0,0.4,0,0.5c0,0.4,0.1-0.1,0.2-0.1l0-0.4c0.1-0.3,0.2,0.1,0.3,0v0.4
		l0-0.2c0,0.4,0,0.6,0.1,0.3l-0.2,0.9c0-0.2,0-0.5,0-0.8c0-0.3-0.1-0.2-0.1,0.1c0,0,0,0,0.1-0.2c0,0.5,0,0.5-0.1,0.8c0,0,0,0.1,0,0
		c0,0.2-0.1,0.3-0.1,0.3c0-0.2,0-0.3,0-0.5c0,0.5-0.1,0.6-0.1,0.5c0-0.5-0.1,0.3-0.2,0.2c0-0.5,0.1-0.8,0.1-1c0-0.2-0.1,0-0.1-0.2
		c0,0.3,0,0.9-0.1,1.1v-0.3c-0.1,0.2-0.1,0.7-0.1,0.6c-0.1-0.2-0.3-0.2-0.4-0.2v-0.3c-0.1,0.7-0.2,0.3-0.3,0.6
		c-0.1-0.3-0.3,0.3-0.3-0.3c-0.2,0.3-0.4,0.5-0.7,0.4l0-0.5c0,0.4,0-0.3-0.1-0.2c0,0.4-0.1,0.5-0.1,0.8c-0.1-0.4-0.2,0-0.3,0.4v-0.3
		c-0.1,0.6-0.2,0.1-0.3,0c0-0.1,0-0.5-0.1-0.4c-0.1,0.5-0.1,0.5-0.2,0.9c-0.1,0-0.2-0.1-0.2-0.4c-0.3,0.8-0.5,0.3-0.8,0.7l0-0.4
		c-0.3,0.9-0.6,0.1-0.8,0.5l0-0.7c-0.1-0.2-0.2,0.2-0.1,0.7c-0.1-0.2-0.2,0.3-0.2-0.2c-0.1-0.1-0.1,0.3-0.2,0.4
		c-0.1-0.3-0.2-0.2-0.3-0.1l0,0c0-0.1,0-0.4,0-0.5c0,0.2-0.2-0.2-0.1,0.6c-0.1-0.5-0.3,0.4-0.5-0.2c0,0.2,0,0.3,0,0.4
		c-0.1,0-0.3-0.4-0.4-0.1c0-0.1,0-0.4,0-0.4c0,0.1,0,0.3,0,0.4c-0.2,0.4-0.4-0.4-0.6-0.3c-0.3,0.4-0.7,0.2-1,0.3v-0.2
		c-0.1,0.6-0.2-0.6-0.3,0.3c0-0.2-0.1-0.1-0.1-0.4c-0.1,0.4-0.2-0.4-0.4,0.1c0,0,0,0,0-0.1c-0.1-0.4-0.2,0.1-0.4-0.2
		c0-0.1,0-0.1,0-0.3c0-0.3-0.1,0.7-0.2-0.1c0,0,0,0.4,0,0.4c-0.3-0.3-0.6,0.2-0.9,0.4c-0.2-0.5,0-1.3-0.2-0.7c0-0.1,0,0.3,0,0.1
		c-0.1,0.2-0.1-0.9-0.2-0.5c0,0.5,0,0.3,0,0.6c-0.1-0.3-0.2-0.8-0.3-0.4v-0.2c-0.1,0.7-0.2,0.3-0.3,1.2c-0.7,0.1-1.3,0.6-1.9,0.7
		c-0.6-0.2-1.3,0.2-1.9-0.2c-0.2-0.7-0.2-0.6-0.3-0.4c0-0.1,0-0.1,0-0.2c0,0.5-0.1,0-0.1,0.6c-0.2-0.1-0.5,0-0.7,0
		c0-0.1,0.1-0.5,0-0.5l0,0.4v-0.1c0,0.1-0.1,0.4,0,0.5c-0.6,0.5-1.2-0.6-1.8-0.5c-0.1-0.2-0.3,0-0.5,0.1c-0.5-0.7-0.9-1.3-1.3-0.8
		C69.6,82.2,69.6,80.8,69.8,80.4L69.8,80.4z"/>
	<path class="st0" d="M90.4,80.8c0-0.3-0.1-0.4,0-0.8C90.4,80.2,90.4,80.5,90.4,80.8z"/>
	<path class="st0" d="M89,78c0,0.1,0-0.1,0-0.2c0,0,0-0.2,0-0.1C89,77.7,89,77.8,89,78L89,78z"/>
	<path class="st0" d="M88.6,77.8c0-0.2,0.1-0.4,0.1-0.5L88.6,77.8z"/>
	<path class="st0" d="M88.3,76.8c0-0.2,0-0.3,0-0.3C88.3,76.6,88.3,76.7,88.3,76.8z"/>
	<path class="st0" d="M88.2,77.3c0,0,0-0.1-0.1-0.3C88.2,77.3,88.2,76.9,88.2,77.3z"/>
	<path class="st0" d="M87.5,76.6C87.5,76.6,87.4,76.8,87.5,76.6C87.4,76.8,87.5,76.3,87.5,76.6z"/>
	<path class="st0" d="M87.1,77C87.1,77,87.1,76.9,87.1,77c-0.1-0.1,0-0.3,0-0.3L87.1,77L87.1,77z"/>
	<polygon class="st0" points="80.9,78 80.9,77.9 80.9,78.1 	"/>
	<path class="st0" d="M78.1,78c0,0.1,0-0.2,0-0.3C78.1,77.7,78.1,78,78.1,78z"/>
	<polygon class="st0" points="76.6,79.2 76.6,79.2 76.6,79.7 	"/>
	<path class="st0" d="M68.4,27.1c-0.3,0.1,0.2,0.4-0.2,0.2C68.3,27,68.3,26.9,68.4,27.1z"/>
	<path class="st0" d="M117.1,75.9c-1.3-0.9-0.1-2.1-1-3c-0.1-0.1,0.7,0,0.5-0.3c-0.3-0.2-0.4-0.5-0.5-0.8c-0.1-0.3-0.2-0.6-0.2-0.9
		c0-0.6,0.3-1.4,0.5-2l0.2,0c0.1-0.2-0.6-0.4-0.5-0.7c0.1,0,0.2,0,0.4,0c-0.4,0-0.2-0.4-0.5-0.4c0.1-0.1,0.5-0.2,0.6-0.3l-0.5,0
		c-1.1-0.2-0.1-0.9-0.8-1.3c0.1,0,0.2,0,0.3,0c-0.8-0.7-1-1.7-1.4-2.5c0.2,0,0.5,0,0.6-0.1c-0.5,0.1-0.7-0.2-0.8-0.4
		c0.4-0.2-0.5-0.3-0.3-0.6h0.1c-0.6,0,0.2-0.4-0.5-0.4l0.3-0.2c-0.7,0.1,0.2-0.4-0.2-0.5l-0.1,0c-0.2-0.1,0.1-0.3-0.1-0.4l0.1,0
		c-0.3-0.3,0-0.6-0.5-0.4c0.4-0.3,0.3,0.3,0.8-0.1c-0.5-0.5-0.8-1-1-1.5c-0.2-0.5-0.4-1.1-0.7-1.6c0.1-0.2,0.2-0.3,0.3-0.4
		c-0.2-0.1-0.3-0.4-0.6-0.4c0,0,0.2-0.2,0.2-0.2c0.1-0.3-0.6,0-0.5-0.3c0.2,0,0.3,0,0.5-0.1c-0.5,0-0.5-0.3-0.8-0.4
		c0.1,0,0.2,0,0.3-0.1c-0.5,0-0.1-0.5-0.5-0.5l0.3-0.1c0.2-0.5-0.6,0.2-0.6-0.2c0.1,0,0.2-0.1,0.3-0.1c-0.6,0-0.7-0.5-1-0.7
		c0,0,0.1,0,0.1,0c-0.2-0.2-0.2-0.6-0.7-0.8c0-0.2,0.7-0.3,0.4-0.6c-0.5,0.3-0.5-0.4-1,0.2c-0.1-0.3-0.1-0.8-0.4-0.9
		c0.3,0,0.6-0.5,0.8-0.3l0.2-0.4c0.2-0.1,0,0.2,0.3,0c-0.1-0.1-0.5-0.3-0.5-0.4c-0.4,0-1.2,0.2-1.4-0.1c0.3,0,0.5-0.5,0.7-0.4
		l-1.3,0.2c-0.1-0.1,0.4-0.3,0.2-0.4c-0.1,0.1-0.3,0.1-0.4,0.1c0-0.1-0.4-0.3,0-0.7c0.2-0.2,0.2,0.1,0.3-0.1
		c-0.1-0.2-0.3-0.1-0.5-0.2l0.1,0c0-0.2-0.5-0.2-0.7,0.1c0,0.1,0.3-0.2,0.2,0c-0.3,0.1-0.6,0-0.7-0.2c0.1,0,0.2-0.1,0.4-0.2
		c-0.6,0-0.9-0.1-1.2-0.3c-0.2,0.2,0.5-0.2,0.4-0.1c0.1-0.6-1-0.4-0.7-1c0.1,0-0.3,0.3-0.2,0.2c-0.1-0.2,0.2-0.4,0-0.5
		c0.2-0.2-0.2-0.1-0.3-0.1c-0.2,0.1,0.1-0.1,0.2,0c-0.3,0-1.1-0.3-1.1-0.9c-0.1,0.1-0.6,0.2-0.7,0.1l0.3-0.2c0.1-0.2-0.2-0.2,0-0.5
		c-0.5,0.1,0.8,0.4,0.4,0.4c0.2-0.3-0.7,0.1-0.3-0.2c-0.2-0.1-0.6,0-0.5-0.4c0,0.1,0.5-0.2,0.4-0.3c-0.2-0.2-0.2,0.1-0.4,0h-0.2
		c-0.3,0.2-0.1-0.2-0.4,0.1c0.2-0.2-0.4-0.2,0.1-0.6l0.4-0.3c-0.1-0.1-0.5,0.2-0.7,0.3c0,0,0.1-0.1,0.1-0.2c-0.5,0.5-0.2-0.3-0.7,0
		c0-0.4-0.4-0.5-0.2-0.9c-0.3,0-0.6,0.1-0.7-0.2c0.1,0,0.1,0,0.3-0.1c0-0.2-0.1-0.1-0.3-0.1c0.1-0.1,0.1-0.5,0.2-0.8
		c-0.3,0-0.5,0.4-0.7,0.5c0.4-0.7-0.7,0-0.5-0.7c0.1,0,0.5-0.1,0.5-0.3c0.4-0.7-0.6,0.1-0.6-0.3l-0.3,0.5c0.2-0.4-0.5,0-0.1-0.5
		c-0.2,0.1-0.1-0.4-0.5,0.1c0-0.7-1-0.5-0.6-1.5c-0.1,0-0.2-0.1-0.4,0.1c-0.1,0.3,0.3-0.1,0.2,0.1c-0.1,0-0.2,0.1-0.2,0.1
		c0-0.2-0.1-0.3,0.3-0.6c0-0.5-0.9,0.6-1.1,0.1c0.2-0.2,0.2-0.3,0.1-0.3l-0.4,0.2c-0.2-0.2,0.2-0.5,0.5-0.9c-0.2,0-0.3-0.2-0.5,0
		l0.2-0.5c-0.1,0.4-0.2,0.1-0.4,0.2l0.1,0c0.1-0.2-0.1-0.2-0.2-0.2c-0.1,0.2-0.1,0.4,0,0.5c-0.2,0.1-0.2,0-0.4,0.1
		c0.3-0.3,0-0.4-0.1-0.5c0-0.1-0.3,0.2-0.3,0.2c0.1-0.2-0.2-0.2,0.1-0.3c0.1,0,0,0.2,0.1,0.1c0-0.2,0.2-0.5-0.1-0.4
		c-0.2,0.1-0.4,0.7-0.5,0.3c0.1,0,0.2-0.2,0.3-0.3l-0.1-0.3L94.5,38c0-0.1,0.1-0.1,0.1-0.2c-0.3,0.3-0.4-0.1-0.7,0.2
		c-0.1,0-0.1-0.4-0.2-0.4l0,0c0-0.3-0.2-0.2-0.5-0.1l0-0.1c0-0.1-0.2-0.1-0.4,0c0-0.3,0.7-1.2,0.3-0.9c-0.2-0.1-0.6,0.4-0.7,0.7
		c-0.2-0.4-0.8-0.1-0.8-0.8c-0.1,0.1-0.1,0.2-0.3,0.2c-0.4-0.4-1.2-0.2-1.2-1c0.2-0.1,0.2-0.3,0.3-0.5c-0.3,0.2,0-0.4-0.3,0.1
		c-0.2,0.3-0.2,0.4-0.2,0.6c-0.4,0-0.8-0.2-0.8-0.5c0,0.2-0.1,0.2-0.2,0.3c0.3-0.5,0.1-0.6-0.2-0.5l-0.2,0.3l0-0.4
		c-0.1,0.1-0.4,0.6-0.4,0.2c0-0.1,0.1-0.2,0.1-0.3c-0.3,0.2-0.7,0.5-0.8,0.1l0.1-0.5c-0.1,0-0.3,0.2-0.3,0.4c-0.2-0.4-0.3-0.5-0.3-1
		c-0.5,0.3-0.9,0.4-1.3,0.4c-0.4,0-0.7-0.1-1-0.3l0.1-0.2c-0.1-0.3-0.2,0.4-0.3,0.2c0.1-0.2,0.1-0.5,0.3-0.7
		c-0.2-0.3-0.5,0.3-0.7,0.3c-0.1,0.3,0.2-0.1,0,0.2c-0.1,0.1-0.2-0.4-0.5,0.1c0-0.2,0.2-0.5,0.3-0.7l-0.2,0.2c0-0.6,0.8-0.8,0.8-1.5
		l-0.2,0c0-0.5,0.6-0.4,0.3-0.7c-0.2,0.2-0.6,0.8-0.6,1c-0.4,0-0.5,1-0.9,0.9c0-0.3,0.3,0,0.4-0.4c0-0.4-0.4,0.1-0.5-0.1
		c0.1,0.2-0.2,0.6-0.3,0.7c-0.1-0.3,0.3-0.4,0-0.5c-0.1,0.2-0.4,0.4-0.3,0.6c-0.3,0.6-0.2-0.3-0.5,0.2c0.1-0.5,0.6-0.9,0.4-1.2
		c-0.1,0.4-0.5,0.4-0.6,1.1c-0.1-0.2,0-0.5,0.2-0.7c-0.1-0.3-0.6,0.6-0.4-0.2l-0.2,0.4c0-0.1,0-0.3,0-0.5c-0.1,0-0.6,0.5-0.4-0.2
		c-0.1,0-0.4,0-0.4,0.4c0.1,0.3,0.3-0.3,0.2,0.4c0-0.5-0.3,0-0.4,0.1l0.1-0.2c-0.1,0.1-0.2,0-0.3,0.2c0.1-0.1,0.1-0.3,0.1-0.4
		l-0.2,0.4c-0.3,0.1,0.1-0.7-0.2-0.6l0.3-0.2c-0.1,0,0-0.3-0.2-0.2c-0.2,0.3-0.3,0.7-0.5,1c-0.2,0.1,0-0.4-0.2-0.1l0.3-0.4
		c0.1-0.1,0-0.6-0.2-0.6c-0.2,0.1-0.5,0.5-0.3,0.8c-0.1,0-0.2-0.3,0-0.5c-0.2,0.1-0.1,0.4-0.3,0.5c0-0.2-0.2-0.6-0.2-1l0.3-0.5
		l-0.1,0c0.3-0.4,0-0.4,0.2-0.9c-0.1-0.1-0.2,0-0.3,0.1c0.1,0.9-0.5,1-0.6,1.7c-0.4,0.1,0.2-1.8-0.5-0.8c0,0.2-0.3,0.7,0,0.6
		c-0.2-0.1-0.3,0.7-0.5,0.3c0.3-0.2,0-0.8,0.3-1.1c-0.1,0.2,0.1,0.2,0.2,0.2c0-0.3,0.2-0.7-0.1-0.8c-0.2,0-0.4,0-0.4,0.4
		c-0.1,0.4,0.2,0,0,0.4c-0.3,0.1-0.2-0.5-0.5,0.2c0.2,0,0.2,0.4,0.1,0.7l-0.2,0.1L77,32c-0.3-0.2-0.2,0.5-0.5,0.4l0-0.6
		c0.2-0.5,0.4,0.3,0.5-0.5c-0.2-0.1-0.3,0.3-0.5,0.1c0.1-0.1,0.1-0.1,0.2-0.1c-0.1,0,0-1.1-0.4-0.5c-0.2,0.2-0.1,0.3-0.1,0.5
		c-0.3,0-0.5,0.3-0.7,0.3c0.1-0.6-0.4-0.1,0-0.6c0.1,0.4,0.5,0.4,0.8-0.1c0-0.7,0.2,0.1,0.5-0.5c-0.3-0.1-0.2-0.7-0.1-1.1
		c-0.1,0-0.2,0.1-0.2,0.2c-0.1,0.4,0,0.4-0.1,0.8c-0.3-0.2-0.6,0-0.9,0.4c-0.1-0.2,0-0.6,0.2-0.6c-0.4,0.1-0.8,0-1.1-0.2
		c0.1,0.7-0.4,0.1-0.3,0.7c0.2,0.2,0.3,0.7,0.1,1c-0.1-0.1,0-0.3,0-0.4c-0.2,0.3-0.2-0.6-0.4-0.1c0.4-0.2,0.2-0.8,0.3-1.3
		c-0.3,0.3,0.1-0.4-0.2-0.4c-0.3,0.2-0.6,0.4-0.9,0.5c-0.3-0.5-0.9,0-1.2,0c-0.1-0.3,0-0.9-0.2-1c-0.2,0,0.1,0.6-0.2,0.4l0-0.1
		c-0.1,0.1-0.5-0.4-0.7,0.4l0.1-0.6c0-0.1-0.1,0.1-0.2,0.1c0-0.2,0-0.4,0-0.5c-0.2-0.5-0.4,0-0.6,0.1l0.1,0.4
		c-0.4,0.3-0.6-0.1-0.9,0l0-0.4l-0.2,0.2c0.1-0.4-0.1-0.6-0.2-0.3l0.5-0.9c0.1,0.2-0.2,0.4-0.1,0.8c0.1,0.3,0.4,0.2,0.5-0.1
		c-0.1,0-0.1,0-0.2,0.2c0-0.5,0.2-0.5,0.3-0.8c-0.1,0-0.2-0.1-0.2,0c0.1-0.2,0.3-0.3,0.5-0.3c-0.2,0.2,0.1,0.3,0,0.5
		c0-0.5,0.2-0.6,0.5-0.4c0.2,0.5,0.5-0.3,0.8-0.1c-0.2,0.5-0.3,0.8-0.5,1c0.2,0.2,0.2,0,0.4,0.2c0.1-0.3,0.2-0.9,0.5-1.1v0.3
		c0.2-0.2,0.3-0.7,0.5-0.5c0.5,0.2,1,0.2,1.4,0.3l0,0.3c0.3-0.7,0.7-0.2,1-0.4c0.4,0.4,1.1-0.2,1.2,0.5c0.9-0.1,1.7-0.3,2.5,0
		l-0.2,0.5c0.2-0.3,0,0.3,0.2,0.3c-0.1-0.4,0.3-0.5,0.5-0.7c0.3,0.5,0.9,0.2,1.3,0l-0.1,0.3c0.5-0.5,0.8,0.1,1.2,0.3
		c0,0.1,0,0.5,0.1,0.5c0.4-0.5,0.5-0.4,0.9-0.6c0.2,0.1,0.6,0.3,0.8,0.6c1.2-0.4,1.9,0.4,3,0.3l-0.1,0.4c0.6-0.2,1.2,0,1.6,0.2
		c0.5,0.3,0.9,0.6,1.4,0.5l-0.4,0.6c0.2,0.3,0.6,0.1,0.8-0.4c0.2,0.3,0.7,0,0.7,0.6c0.2,0.2,0.4-0.1,0.7-0.1
		c0.4,0.5,0.6,0.5,1.1,0.6L92,31.3c-0.1,0.1-0.3,0.4-0.2,0.5c0.3-0.1,0.5,0.5,0.8-0.3c0.2,0.7,1.3,0.3,1.4,1.2
		c0.1-0.2,0.2-0.2,0.3-0.3c0.4,0.2,0.6,0.9,1.1,0.8c0,0.1-0.3,0.2-0.2,0.4c0.1,0,0.2-0.2,0.3-0.3c0.5,0,0.7,0.3,1,0.7
		c0.2,0.3,0.4,0.7,0.7,0.9c1.3,0.4,2.2,1.4,3.2,2.1l-0.1,0.1c0.7-0.2,0.3,1.1,1.2,0.6c0,0.2,0.2,0.3,0,0.5c0.5-0.1,0.4,0.9,1.1,0.8
		c0,0-0.1,0-0.2,0c0.1,0.6,0.8,0.5,0.9,1.1c-0.1,0-0.2,0-0.3,0.1c-0.1,0.4,0.8-0.2,0.3,0.5c0.1,0.1,0.3-0.2,0.3-0.3
		c0.6,1,1.7,1.5,2.6,2.2c0.2,0.9-1,0.9-0.1,1c-0.1,0.1,0.2-0.2,0.1-0.1c0.3,0-0.4,0.9,0,0.7c0.3-0.4,0.3-0.1,0.5-0.3
		c0.1,0.6-0.2,0.9,0.3,1L107,45c0.8-0.1,0.8,0.6,1.7,0.4c0.8,1,1.7,1.9,2.5,2.9c0.8,1,1.5,2,2.2,3c0.6,1.1,1.1,2.2,1.7,3.3
		c0.3,0.5,0.5,1.1,0.8,1.7c0.2,0.6,0.3,1.2,0.5,1.8c-0.4,0.8-0.4,0.8,0.1,1.3c-0.1,0-0.2,0-0.2,0.1c0.5-0.1,0.2,0.4,0.7,0.3
		c0.2,0.9,0.7,1.7,0.9,2.6c-0.1-0.1-0.5-0.1-0.5,0.1l0.4,0.1l-0.1,0.1c0.1,0.1,0.4,0.1,0.5,0c0.5,1.1,0.7,2.3,0.8,3.5
		c0,1.2-0.1,2.4,0.2,3.5c-0.2,0.6,0.2,1.3,0.4,1.9c-0.6,1.9-1.1,3.4-0.5,5.2C118.9,76.8,117.5,76.6,117.1,75.9L117.1,75.9z"/>
	<path class="st0" d="M68.7,27c0.1,0.3,0.2,0.4,0.1,0.8C68.8,27.6,68.7,27.3,68.7,27z"/>
	<path class="st0" d="M73.7,30.2c0-0.1,0.1,0.1,0.1,0.2c-0.1,0-0.2,0.2-0.2,0.1C73.7,30.4,73.7,30.3,73.7,30.2z"/>
	<path class="st0" d="M75,30.5c-0.1,0.2-0.3,0.4-0.5,0.4L75,30.5z"/>
	<path class="st0" d="M76,31.7c0.1,0.2,0,0.3-0.1,0.3C75.9,31.9,75.9,31.8,76,31.7z"/>
	<path class="st0" d="M76.2,31.2c0.1,0,0.1,0.2,0.1,0.3C76.3,31.3,76,31.6,76.2,31.2z"/>
	<path class="st0" d="M78.5,32.4c0.1,0,0.2-0.2,0.2,0.1C78.7,32.3,78.4,32.7,78.5,32.4z"/>
	<path class="st0" d="M79.7,32.3C79.7,32.3,79.8,32.4,79.7,32.3c0.1,0.1,0,0.3,0,0.3L79.7,32.3L79.7,32.3z"/>
	<polygon class="st0" points="99.1,41.8 98.9,41.8 99.1,41.6 	"/>
	<path class="st0" d="M105.6,48.9c0.2,0-0.1,0.2-0.2,0.2C105.3,49.1,105.7,49,105.6,48.9z"/>
	<polygon class="st0" points="109.5,52.7 109.4,52.6 109.9,52.4 	"/>
	<path class="st0" d="M61.7,126c0.3-0.1-0.1-0.5,0.2-0.2C61.9,126.1,61.8,126.2,61.7,126z"/>
	<path class="st0" d="M18.9,73.4c1.2,1-0.1,2.1,0.7,3c0,0.1-0.7,0-0.5,0.2c1,0.9,0.5,2.4-0.2,3.6l-0.2-0.1c-0.1,0.2,0.5,0.5,0.5,0.7
		c-0.1,0-0.2-0.1-0.4,0c0.4,0,0.2,0.4,0.5,0.5c-0.1,0.1-0.5,0.1-0.6,0.3l0.5,0.1c1.1,0.2,0,0.9,0.7,1.3c-0.1,0-0.2,0-0.3,0
		c0.8,0.7,0.8,1.7,1.1,2.6c-0.2,0-0.5,0-0.6,0.1c0.5,0,0.6,0.2,0.8,0.4c-0.5,0.2,0.5,0.3,0.3,0.6H21c0.5,0.1-0.2,0.4,0.4,0.4
		l-0.3,0.2c0.7-0.1-0.3,0.4,0.1,0.5l0.1,0c0.2,0.1-0.1,0.3,0,0.4l-0.1,0c0.3,0.3-0.1,0.6,0.5,0.5c-0.4,0.2-0.3-0.3-0.8,0.1
		c0.4,0.5,0.6,1,0.8,1.6c0.2,0.5,0.4,1.1,0.6,1.6c-0.2,0.2-0.2,0.3-0.4,0.4c0.1,0.1,0.2,0.4,0.5,0.4c0,0-0.2,0.2-0.2,0.2
		c-0.1,0.3,0.6,0,0.5,0.3c-0.2,0-0.3,0-0.5,0.1c0.5,0,0.5,0.3,0.7,0.5c-0.1,0-0.2,0-0.3,0c0.5,0.1,0,0.5,0.4,0.6l-0.3,0
		c-0.2,0.5,0.6-0.1,0.6,0.2c-0.1,0-0.2,0-0.4,0.1c0.6,0.1,0.7,0.6,1,0.8c0,0-0.1,0-0.1,0c0.2,0.3,0.2,0.6,0.5,0.9
		c-0.1,0.2-0.7,0.3-0.5,0.5c0.6-0.3,0.5,0.4,1-0.1c0,0.3,0,0.8,0.3,0.9c-0.3,0-0.6,0.5-0.8,0.3L24,98.5c-0.2,0.1,0-0.2-0.3,0
		c0.1,0.1,0.5,0.3,0.4,0.5c0.5,0,1.2-0.1,1.4,0.1c-0.3,0-0.6,0.4-0.7,0.4l1.3-0.1c0.1,0.1-0.4,0.2-0.2,0.3c0.1-0.1,0.3-0.1,0.4-0.1
		c0,0.1,0.4,0.4-0.1,0.7c-0.2,0.2-0.2-0.1-0.3,0.1c0.1,0.2,0.3,0.1,0.4,0.3l-0.1,0c0,0.2,0.4,0.2,0.6-0.1c0-0.1-0.3,0.2-0.2,0
		c0.4-0.1,0.6,0.1,0.7,0.3c-0.1,0-0.3,0.1-0.4,0.1c0.6,0,0.8,0.2,1.2,0.4c0.2-0.1-0.5,0.2-0.4,0c-0.1,0.6,1,0.4,0.6,1
		c-0.1,0,0.3-0.2,0.3-0.2c0.1,0.2-0.3,0.4-0.1,0.4c-0.2,0.1,0.2,0.1,0.3,0.2c0.2,0-0.1,0.1-0.2,0c0.3,0,1,0.4,1,1
		c0.1-0.1,0.6-0.1,0.7,0l-0.3,0.2c-0.1,0.2,0.2,0.2,0,0.5c0.5-0.1-0.8-0.4-0.3-0.4c-0.2,0.2,0.7,0,0.3,0.2c0.1,0.2,0.6,0.1,0.4,0.4
		c0-0.1-0.5,0.2-0.4,0.3c0.2,0.2,0.2,0,0.4,0.1l0.2,0c0.3-0.2,0.1,0.2,0.4-0.1c-0.2,0.2,0.4,0.2-0.1,0.5l-0.4,0.3
		c0.1,0.1,0.5-0.2,0.8-0.2c0,0-0.1,0.1-0.1,0.2c0.6-0.4,0.1,0.3,0.7,0c0,0.4,0.4,0.5,0.1,0.9c0.3,0,0.6,0,0.6,0.2
		c-0.1,0-0.1,0-0.3,0.1c-0.1,0.2,0.1,0.1,0.3,0.2c-0.1,0-0.2,0.5-0.3,0.8c0.3,0,0.5-0.3,0.8-0.5c-0.4,0.6,0.7,0.1,0.4,0.7
		c-0.1,0-0.5,0-0.5,0.3c-0.4,0.6,0.7-0.1,0.6,0.3l0.4-0.5c-0.2,0.4,0.5,0.1,0.1,0.5c0.2-0.1,0.1,0.4,0.5,0c0,0.7,1,0.6,0.5,1.6
		c0.1,0,0.2,0.2,0.4-0.1c0.2-0.3-0.3,0.1-0.1-0.1c0,0,0.2-0.1,0.2-0.1c0,0.2,0.1,0.3-0.4,0.6c0,0.5,0.9-0.5,1.1,0
		c-0.2,0.2-0.2,0.2-0.1,0.3l0.5-0.1c0.1,0.2-0.3,0.5-0.5,0.8c0.2,0,0.3,0.2,0.5,0l-0.2,0.5c0.2-0.4,0.3-0.1,0.4-0.1l-0.1,0
		c-0.1,0.1,0.1,0.2,0.2,0.2c0.2-0.2,0.1-0.4,0.1-0.5c0.2-0.1,0.2,0,0.5-0.1c-0.3,0.3,0,0.4,0,0.5c0,0.1,0.4-0.2,0.4-0.1
		c-0.1,0.2,0.1,0.2-0.1,0.3c-0.1,0,0.1-0.2-0.1-0.1c0,0.2-0.3,0.5,0,0.4c0.2-0.1,0.5-0.6,0.5-0.3c-0.1,0-0.2,0.1-0.4,0.2l0,0.3
		l0.2-0.3c0,0.1-0.1,0.1-0.1,0.1c0.3-0.2,0.4,0.1,0.7-0.2c0.1,0,0,0.4,0.1,0.5h0c0,0.3,0.2,0.3,0.5,0.2l-0.1,0.1
		c0,0.1,0.2,0.1,0.4,0c0,0.4-0.8,1.1-0.4,0.9c0.2,0.1,0.7-0.4,0.8-0.6c0.1,0.4,0.8,0.1,0.7,0.8c0.1-0.1,0.2-0.2,0.3-0.2
		c0.3,0.4,1.1,0.3,1,1.1c-0.2,0-0.2,0.3-0.3,0.5c0.3-0.2-0.1,0.4,0.3-0.1c0.2-0.3,0.3-0.4,0.2-0.6c0.4,0,0.7,0.3,0.7,0.7
		c0-0.2,0.1-0.2,0.2-0.3c-0.3,0.4-0.2,0.6,0.1,0.6l0.2-0.3l-0.1,0.3c0.1,0,0.4-0.5,0.4-0.2c-0.1,0.1-0.1,0.2-0.1,0.3
		c0.3-0.1,0.8-0.4,0.8-0.1l-0.1,0.5c0.1,0,0.4-0.2,0.3-0.4c0.1,0.4,0.3,0.5,0.2,1c1-0.6,1.7-0.2,2.2,0.2l-0.1,0.2
		c0,0.3,0.3-0.3,0.3-0.1c-0.2,0.2-0.1,0.5-0.4,0.7c0.1,0.3,0.5-0.2,0.7-0.3c0.2-0.3-0.2,0.1,0-0.2c0.1-0.1,0.2,0.4,0.5,0
		c0,0.2-0.2,0.5-0.4,0.7l0.2-0.1c-0.1,0.6-0.8,0.7-1,1.4h0.2c-0.1,0.5-0.6,0.3-0.4,0.6c0.3-0.1,0.7-0.7,0.7-1c0.4,0,0.7-1,1-0.8
		c0,0.3-0.3-0.1-0.4,0.3c0,0.4,0.4,0,0.5,0.1c-0.1-0.2,0.3-0.6,0.4-0.6c0.1,0.3-0.3,0.4-0.1,0.5c0.2-0.2,0.5-0.3,0.4-0.6
		c0.3-0.5,0.2,0.3,0.5-0.1c-0.1,0.4-0.7,0.8-0.5,1.1c0.2-0.4,0.5-0.4,0.7-1c0,0.2-0.1,0.5-0.3,0.7c0,0.3,0.7-0.6,0.3,0.2l0.2-0.4
		c0,0.1,0,0.3,0,0.5c0.1,0.1,0.6-0.4,0.3,0.2c0.1,0,0.3,0.1,0.4-0.4c-0.1-0.3-0.3,0.2-0.2-0.4c-0.1,0.5,0.3,0.1,0.4,0l-0.1,0.2
		c0.1-0.1,0.2,0,0.4-0.2c-0.1,0.1-0.2,0.3-0.1,0.4l0.2-0.3c0.3-0.1-0.2,0.7,0.1,0.6l-0.3,0.2c0.1,0,0,0.3,0.2,0.2
		c0.2-0.3,0.4-0.7,0.6-0.9c0.2-0.1-0.1,0.4,0.2,0.1l-0.3,0.3c-0.1,0.1-0.1,0.6,0.1,0.6c0.2-0.1,0.5-0.5,0.4-0.7c0.1,0,0.1,0.3,0,0.5
		c0.2,0,0.1-0.4,0.4-0.5c0,0.2,0.1,0.6,0.1,1l-0.4,0.5l0.1,0c-0.3,0.4,0,0.4-0.3,0.8c0.1,0.1,0.2,0,0.4-0.1c0-0.9,0.7-0.9,0.8-1.7
		c0.4-0.1-0.4,1.8,0.3,0.8c0-0.2,0.4-0.7,0.1-0.5c0.2,0.2,0.4-0.6,0.5-0.3c-0.3,0.2,0,0.8-0.5,1.1c0.1-0.2-0.1-0.2-0.2-0.2
		c0,0.3-0.3,0.7,0,0.8c0.2,0,0.3,0,0.4-0.3c0.1-0.4-0.2,0,0-0.4c0.3,0,0.2,0.6,0.5-0.1c-0.2,0-0.1-0.4,0-0.7l0.2-0.1l-0.1,0.2
		c0.2,0.3,0.2-0.4,0.5-0.3l0,0.6c-0.2,0.4-0.4-0.3-0.6,0.4c0.2,0.1,0.4-0.3,0.5,0c-0.1,0-0.1,0.1-0.2,0.1c0.1,0-0.2,1,0.3,0.5
		c0.2-0.2,0.1-0.3,0.2-0.5c0.3,0,0.5-0.3,0.8-0.2c-0.2,0.5,0.3,0.1,0,0.6c0-0.4-0.5-0.4-0.8,0c-0.1,0.7-0.2-0.2-0.5,0.5
		c0.3,0.1,0,0.7,0,1.1c0.1,0,0.2-0.1,0.3-0.2c0.2-0.4,0-0.4,0.2-0.8c0.3,0.2,0.6,0,0.9-0.3c0,0.2-0.1,0.6-0.2,0.6
		c0.4,0,0.8,0.1,1,0.3c0-0.7,0.4,0,0.4-0.6c-0.1-0.2-0.2-0.7,0-1c0.1,0.1-0.1,0.3-0.1,0.4c0.2-0.3,0.1,0.6,0.3,0.1
		c-0.4,0.1-0.3,0.8-0.4,1.3c0.3-0.2-0.1,0.4,0.1,0.4c0.3-0.2,0.6-0.4,0.9-0.4c0.2,0.6,0.8,0.2,1.1,0.2c0.1,0.3-0.1,0.9,0,1
		c0.2,0,0-0.6,0.2-0.3l0,0.1c0.1-0.1,0.5,0.5,0.7-0.3l-0.2,0.6c0,0.1,0.1-0.1,0.2-0.1c0,0.2,0,0.4-0.1,0.5c0.1,0.5,0.4,0,0.6,0
		l-0.1-0.4c0.4-0.2,0.5,0.2,0.9,0.1l-0.1,0.4l0.2-0.2c-0.1,0.4,0,0.6,0.2,0.3l-0.7,0.8c-0.1-0.2,0.2-0.4,0.2-0.8
		c0-0.3-0.3-0.3-0.5,0.1c0.1,0.1,0.1,0,0.2-0.1c0,0.5-0.2,0.5-0.4,0.8c0.1,0,0.1,0.2,0.2,0c-0.2,0.2-0.3,0.2-0.5,0.2
		c0.2-0.2,0-0.3,0-0.5c-0.1,0.5-0.3,0.5-0.5,0.4c-0.1-0.5-0.5,0.2-0.8,0.1c0.2-0.4,0.4-0.8,0.6-0.9c-0.1-0.3-0.2,0-0.3-0.3
		c-0.2,0.3-0.3,0.8-0.6,1l0-0.3c-0.2,0.1-0.3,0.6-0.6,0.5c-0.5-0.2-0.9-0.4-1.3-0.5l0.1-0.3c-0.4,0.6-0.7,0.1-1.1,0.3
		c-0.4-0.4-1.1,0-1.2-0.6c-0.9,0-1.7,0.1-2.4-0.4l0.3-0.4c-0.3,0.3,0-0.3-0.2-0.3c0,0.4-0.4,0.4-0.6,0.7c-0.2-0.5-0.8-0.3-1.3-0.1
		l0.1-0.3c-0.6,0.5-0.8-0.2-1.1-0.4c0-0.1,0.1-0.5-0.1-0.5c-0.4,0.4-0.5,0.4-1,0.5c-0.2-0.1-0.5-0.4-0.7-0.7c-1.2,0.3-1.8-0.6-3-0.6
		l0.1-0.4c-1.3,0.3-1.9-1-2.8-1l0.4-0.5c-0.1-0.3-0.6-0.1-0.8,0.3c-0.1-0.3-0.7,0-0.6-0.6c-0.2-0.2-0.5,0.1-0.7,0.1
		c-0.3-0.5-0.5-0.6-1-0.8l0.1,0.1c0.1-0.1,0.3-0.3,0.2-0.4c-0.3,0-0.5-0.5-0.8,0.2c-0.2-0.7-1.2-0.4-1.3-1.2
		c-0.1,0.2-0.2,0.2-0.4,0.2c-0.4-0.3-0.5-0.9-1-0.9c0-0.1,0.3-0.2,0.2-0.4c-0.1,0-0.2,0.2-0.4,0.2c-0.9-0.2-0.9-1.3-1.5-1.7
		c-0.6-0.2-1.1-0.6-1.6-1c-0.4-0.4-0.9-0.9-1.3-1.3l0.1-0.1c-0.7,0.1-0.2-1.1-1.1-0.7c0-0.2-0.2-0.3,0.1-0.5c-0.5,0.1-0.3-0.9-1-0.9
		c0,0,0.1,0,0.1,0c0-0.6-0.6-0.6-0.7-1.2c0.1,0,0.2,0,0.3-0.1c0.1-0.3-0.8,0.1-0.3-0.5c-0.1-0.1-0.4,0.2-0.3,0.2
		c-0.4-1-1.6-1.5-2.3-2.4c-0.1-0.9,1-0.8,0.2-1c0.1-0.1-0.3,0.1-0.1,0c-0.3-0.1,0.5-0.8,0.1-0.7c-0.4,0.3-0.3,0.1-0.5,0.2
		c0-0.6,0.3-0.9-0.2-1l0.2-0.1c-0.9,0-0.8-0.6-1.7-0.5c-1.4-2.1-3-3.9-4-6.2c-0.4-1.1-1-2.2-1.3-3.4c-0.4-1.1-0.8-2.3-0.9-3.5
		c0.5-0.7,0.5-0.8,0.1-1.3c0.1,0,0.1,0,0.2,0c-0.5,0.1-0.1-0.4-0.7-0.4c-0.1-0.9-0.5-1.7-0.7-2.6c0.1,0.1,0.5,0.1,0.5,0L17,86.4
		l0.1-0.1c-0.1-0.1-0.4-0.2-0.5,0c-0.8-2.3-0.1-4.7-0.3-7c0.2-0.5,0-1.3-0.2-1.9c0.7-1.8,1.4-3.3,1-5C17.2,72.4,18.6,72.7,18.9,73.4
		L18.9,73.4z"/>
	<path class="st0" d="M61.4,126c0-0.3-0.2-0.5,0-0.8C61.4,125.5,61.4,125.8,61.4,126z"/>
	<path class="st0" d="M56.9,122.3c0,0.1,0-0.1,0-0.2c0.1,0,0.2-0.2,0.2-0.1C57,122.1,57,122.2,56.9,122.3L56.9,122.3z"/>
	<path class="st0" d="M55.8,121.8c0.1-0.2,0.4-0.4,0.5-0.3L55.8,121.8z"/>
	<path class="st0" d="M54.9,120.5c0-0.2,0-0.3,0.2-0.3C55.1,120.4,55,120.4,54.9,120.5z"/>
	<path class="st0" d="M54.7,121c-0.1,0-0.1-0.2-0.1-0.3C54.5,120.9,54.8,120.7,54.7,121z"/>
	<path class="st0" d="M52.6,119.6c-0.1,0-0.2,0.1-0.2-0.1C52.4,119.6,52.7,119.2,52.6,119.6z"/>
	<path class="st0" d="M51.4,119.5C51.4,119.5,51.3,119.4,51.4,119.5c-0.1-0.2,0-0.3,0.1-0.3L51.4,119.5L51.4,119.5z"/>
	<polygon class="st0" points="33.4,108.3 33.6,108.3 33.4,108.4 	"/>
	<path class="st0" d="M27.8,100.7c-0.2,0,0.1-0.2,0.2-0.2C28.1,100.6,27.7,100.6,27.8,100.7z"/>
	<polygon class="st0" points="24.4,96.7 24.4,96.7 23.9,96.9 	"/>
</g>
</svg>
