<?xml version="1.0" encoding="utf-8"?>
<!-- Generator: Adobe Illustrator 28.0.0, SVG Export Plug-In . SVG Version: 6.00 Build 0)  -->
<svg version="1.1" id="svg5" xmlns:svg="http://www.w3.org/2000/svg"
	 xmlns="http://www.w3.org/2000/svg" xmlns:xlink="http://www.w3.org/1999/xlink" x="0px" y="0px" viewBox="0 0 493.3 284"
	 style="enable-background:new 0 0 493.3 284;" xml:space="preserve">
<style type="text/css">
	.st0{fill:#EFEED6;}
</style>
<g id="layer1">
	<path id="path857" class="st0" d="M278.3,143.1c0,77.4-62.3,140.1-139.1,140.1S0,220.5,0,143.1S62.3,3,139.1,3
		S278.3,65.7,278.3,143.1 M430.9,143.1c0,72.8-31.1,131.9-69.6,131.9s-69.6-59.1-69.6-131.9s31.1-131.9,69.6-131.9
		S430.9,70.3,430.9,143.1 M493.3,143.1c0,65.3-11,118.1-24.5,118.1c-13.5,0-24.5-52.9-24.5-118.1S455.3,25,468.9,25
		C482.4,25,493.3,77.9,493.3,143.1"/>
</g>
</svg>
